<?xml version="1.0" encoding="UTF-8"?>
<!DOCTYPE svg PUBLIC "-//W3C//DTD SVG 1.1//EN" "http://www.w3.org/Graphics/SVG/1.1/DTD/svg11.dtd">
<svg xmlns="http://www.w3.org/2000/svg" version="1.1" width="450px" height="450px" style="shape-rendering:geometricPrecision; text-rendering:geometricPrecision; image-rendering:optimizeQuality; fill-rule:evenodd; clip-rule:evenodd" xmlns:xlink="http://www.w3.org/1999/xlink">
<g><path style="opacity:0.004" fill="#42a3df" d="M 93.5,39.5 C 95.6282,38.3709 97.9615,38.2042 100.5,39C 98.1902,39.4966 95.8568,39.6633 93.5,39.5 Z"/></g>
<g><path style="opacity:0.01" fill="#46a5e1" d="M 86.5,40.5 C 87.9464,39.3871 89.6131,39.2204 91.5,40C 89.8659,40.4935 88.1992,40.6602 86.5,40.5 Z"/></g>
<g><path style="opacity:0.01" fill="#2c93da" d="M 104.5,40.5 C 108.311,39.3547 112.311,39.1881 116.5,40C 112.514,40.4988 108.514,40.6655 104.5,40.5 Z"/></g>
<g><path style="opacity:0.007" fill="#2a92da" d="M 118.5,41.5 C 122.311,40.3547 126.311,40.1881 130.5,41C 126.514,41.4988 122.514,41.6655 118.5,41.5 Z"/></g>
<g><path style="opacity:0.008" fill="#2a91d9" d="M 132.5,42.5 C 135.976,41.3567 139.642,41.1901 143.5,42C 139.848,42.4986 136.182,42.6653 132.5,42.5 Z"/></g>
<g><path style="opacity:0.009" fill="#268ed8" d="M 146.5,43.5 C 149.976,42.3567 153.642,42.1901 157.5,43C 153.848,43.4986 150.182,43.6653 146.5,43.5 Z"/></g>
<g><path style="opacity:0.006" fill="#268fd9" d="M 159.5,44.5 C 162.976,43.3567 166.642,43.1901 170.5,44C 166.848,44.4986 163.182,44.6653 159.5,44.5 Z"/></g>
<g><path style="opacity:0.011" fill="#238cd8" d="M 172.5,45.5 C 175.976,44.3567 179.642,44.1901 183.5,45C 179.848,45.4986 176.182,45.6653 172.5,45.5 Z"/></g>
<g><path style="opacity:0.012" fill="#2e8bd1" d="M 80.5,46.5 C 79.8333,45.1667 79.8333,45.1667 80.5,46.5 Z"/></g>
<g><path style="opacity:0.011" fill="#228cd8" d="M 185.5,46.5 C 188.64,45.3592 191.973,45.1925 195.5,46C 192.183,46.4983 188.85,46.665 185.5,46.5 Z"/></g>
<g><path style="opacity:0.008" fill="#3486c9" d="M 79.5,46.5 C 79.631,47.2389 79.4643,47.9056 79,48.5C 78.3083,47.5632 78.475,46.8966 79.5,46.5 Z"/></g>
<g><path style="opacity:0.009" fill="#82ebed" d="M 198.5,47.5 C 202.646,46.353 206.98,46.1864 211.5,47C 207.179,47.499 202.846,47.6657 198.5,47.5 Z"/></g>
<g><path style="opacity:0.005" fill="#83ebed" d="M 214.5,48.5 C 217.976,47.3567 221.642,47.1901 225.5,48C 221.848,48.4986 218.182,48.6653 214.5,48.5 Z"/></g>
<g><path style="opacity:0.01" fill="#80eaec" d="M 226.5,49.5 C 229.976,48.3567 233.642,48.1901 237.5,49C 233.848,49.4986 230.182,49.6653 226.5,49.5 Z"/></g>
<g><path style="opacity:0.989" fill="#7ee7e9" d="M 195.5,47.5 C 205.774,48.696 216.107,49.3627 226.5,49.5C 247.631,51.8692 268.964,53.5359 290.5,54.5C 293.287,55.4767 296.287,55.81 299.5,55.5C 301.277,56.6005 303.277,57.4338 305.5,58C 306.381,58.7083 307.047,59.5416 307.5,60.5C 309.338,62.4391 309.505,64.7725 308,67.5C 307.889,63.9527 306.389,61.286 303.5,59.5C 302.5,59.8333 301.833,60.5 301.5,61.5C 304.762,64.5118 307.428,68.0118 309.5,72C 308.571,75.7506 307.738,79.2506 307,82.5C 306.333,81.1667 305.667,81.1667 305,82.5C 305.178,80.5596 304.178,78.893 302,77.5C 301.667,77.8333 301.333,78.1667 301,78.5C 299.174,76.9262 297.007,76.0929 294.5,76C 293.874,75.2496 293.374,74.4162 293,73.5C 289.493,73.6971 285.66,73.8638 281.5,74C 282.167,74.3333 282.833,74.6667 283.5,75C 282.333,75.5 281.5,76.3333 281,77.5C 278.332,76.0196 278.165,74.5196 280.5,73C 279.975,72.3076 279.308,71.8076 278.5,71.5C 275.851,72.9722 273.018,73.9722 270,74.5C 268.609,72.2849 266.943,72.2849 265,74.5C 262.067,73.5343 259.401,73.5343 257,74.5C 256.333,73.8333 255.667,73.1667 255,72.5C 253.991,73.6582 252.658,74.3248 251,74.5C 249.128,73.9648 247.462,73.9648 246,74.5C 244.818,72.6431 243.151,71.6431 241,71.5C 234.372,73.8648 227.539,75.3648 220.5,76C 216.43,76.8987 214.43,79.3987 214.5,83.5C 213.657,88.0943 214.991,91.7609 218.5,94.5C 219.927,97.4928 221.26,100.66 222.5,104C 221.833,104.667 221.167,105.333 220.5,106C 220.989,107.138 221.322,108.305 221.5,109.5C 221.111,112.553 221.777,115.22 223.5,117.5C 223.5,117.833 223.5,118.167 223.5,118.5C 224.373,121.377 226.039,123.71 228.5,125.5C 229.466,127.396 229.799,129.396 229.5,131.5C 228.325,131.281 227.325,131.614 226.5,132.5C 227.193,133.518 227.859,134.518 228.5,135.5C 227.978,140.451 229.645,144.451 233.5,147.5C 233.137,149.911 234.137,151.411 236.5,152C 242.088,153.289 247.755,153.789 253.5,153.5C 253.5,154.5 253.5,155.5 253.5,156.5C 262.745,155.311 271.745,154.811 280.5,155C 281.231,157.595 282.898,159.261 285.5,160C 284.692,160.308 284.025,160.808 283.5,161.5C 285.361,162.528 286.695,164.028 287.5,166C 286.391,166.638 285.225,167.138 284,167.5C 281.975,167.172 279.809,167.006 277.5,167C 280.124,166.424 280.791,165.09 279.5,163C 281.645,162.257 281.811,161.424 280,160.5C 277.659,161.007 277.159,162.174 278.5,164C 276.833,164.333 275.167,164.667 273.5,165C 275.477,167.428 277.81,169.428 280.5,171C 282.135,171.54 283.468,171.04 284.5,169.5C 285.386,170.325 285.719,171.325 285.5,172.5C 288.347,172.782 291.013,172.782 293.5,172.5C 294.506,172.938 294.506,173.604 293.5,174.5C 295.5,174.833 297.5,175.167 299.5,175.5C 305.815,174.178 312.148,173.178 318.5,172.5C 319.167,172.667 319.833,172.833 320.5,173C 319.5,173.333 318.5,173.667 317.5,174C 320.599,174.901 323.599,175.234 326.5,175C 326.833,175.333 327.167,175.667 327.5,176C 325.167,176.333 322.833,176.667 320.5,177C 322.708,177.191 324.708,177.691 326.5,178.5C 301.458,180.095 276.458,182.261 251.5,185C 249.548,185.366 247.882,186.199 246.5,187.5C 244.124,188.512 243.124,190.345 243.5,193C 243.635,196.436 244.969,199.269 247.5,201.5C 247.238,202.978 247.571,204.311 248.5,205.5C 251.891,207.56 255.224,208.893 258.5,209.5C 255.93,210.223 253.597,211.39 251.5,213C 251.833,213.333 252.167,213.667 252.5,214C 246.01,219.267 245.843,224.767 252,230.5C 252.278,229.584 252.778,228.918 253.5,228.5C 254.5,229.167 255.5,229.833 256.5,230.5C 256.5,231.167 256.833,231.5 257.5,231.5C 260.146,232.164 262.979,232.498 266,232.5C 272.542,232.158 279.042,231.491 285.5,230.5C 290.845,230.313 296.178,229.98 301.5,229.5C 295.899,231.796 289.899,233.296 283.5,234C 278.69,237.149 274.19,240.649 270,244.5C 268.274,243.424 266.441,243.257 264.5,244C 265.167,244.333 265.833,244.667 266.5,245C 265.057,248.944 262.391,251.777 258.5,253.5C 257.833,252.833 257.167,252.167 256.5,251.5C 255.264,252.246 253.93,252.579 252.5,252.5C 251.662,252.158 251.328,251.492 251.5,250.5C 233.085,182.756 214.418,115.089 195.5,47.5 Z"/></g>
<g><path style="opacity:0.004" fill="#81ebed" d="M 239.5,50.5 C 242.976,49.3567 246.642,49.1901 250.5,50C 246.848,50.4986 243.182,50.6653 239.5,50.5 Z"/></g>
<g><path style="opacity:0.011" fill="#7feaec" d="M 252.5,51.5 C 255.64,50.3592 258.973,50.1925 262.5,51C 259.183,51.4983 255.85,51.665 252.5,51.5 Z"/></g>
<g><path style="opacity:0.009" fill="#7deaec" d="M 265.5,52.5 C 268.976,51.3567 272.642,51.1901 276.5,52C 272.848,52.4986 269.182,52.6653 265.5,52.5 Z"/></g>
<g><path style="opacity:0.009" fill="#307abe" d="M 77.5,49.5 C 78.6408,52.6399 78.8075,55.9733 78,59.5C 77.5017,56.1832 77.335,52.8499 77.5,49.5 Z"/></g>
<g><path style="opacity:0.011" fill="#7eeaec" d="M 278.5,53.5 C 281.976,52.3567 285.642,52.1901 289.5,53C 285.848,53.4986 282.182,53.6653 278.5,53.5 Z"/></g>
<g><path style="opacity:0.011" fill="#7de9eb" d="M 290.5,54.5 C 292.966,53.3659 295.633,53.1993 298.5,54C 295.854,54.4974 293.187,54.6641 290.5,54.5 Z"/></g>
<g><path style="opacity:0.01" fill="#7ae8eb" d="M 299.5,55.5 C 300.251,54.4265 301.251,54.2599 302.5,55C 301.552,55.4828 300.552,55.6495 299.5,55.5 Z"/></g>
<g><path style="opacity:0.004" fill="#79e7e9" d="M 303.5,56.5 C 303.897,55.475 304.563,55.3083 305.5,56C 304.906,56.4643 304.239,56.631 303.5,56.5 Z"/></g>
<g><path style="opacity:1" fill="#ee7b52" d="M 154.5,59.5 C 151.482,59.3354 148.482,59.502 145.5,60C 147.382,60.1981 149.048,60.6981 150.5,61.5C 143.012,66.6332 141.512,73.2999 146,81.5C 147.873,83.7089 150.04,85.5422 152.5,87C 151.255,87.7914 149.922,88.2914 148.5,88.5C 147.185,87.5244 145.852,86.5244 144.5,85.5C 140.607,91.06 136.774,96.7266 133,102.5C 128.935,97.9656 127.102,92.799 127.5,87C 127.439,85.2894 128.106,83.956 129.5,83C 128.196,82.196 127.529,81.0293 127.5,79.5C 129.418,73.4162 132.751,68.2495 137.5,64C 136.833,63.6667 136.167,63.3333 135.5,63C 136.252,62.3292 136.586,61.4959 136.5,60.5C 137.167,60.5 137.5,60.1667 137.5,59.5C 143.31,58.2891 148.977,58.2891 154.5,59.5 Z"/></g>
<g><path style="opacity:0.012" fill="#72e4e5" d="M 312.5,62.5 C 311.833,61.1667 311.833,61.1667 312.5,62.5 Z"/></g>
<g><path style="opacity:0.008" fill="#2f73b6" d="M 79.5,60.5 C 79.6567,61.8734 79.49,63.2068 79,64.5C 78.235,62.9343 78.4017,61.6009 79.5,60.5 Z"/></g>
<g><path style="opacity:0.008" fill="#71e3e5" d="M 312.5,62.5 C 313.833,63.1667 313.833,63.1667 312.5,62.5 Z"/></g>
<g><path style="opacity:1" fill="#f18861" d="M 136.5,60.5 C 136.586,61.4959 136.252,62.3292 135.5,63C 136.167,63.3333 136.833,63.6667 137.5,64C 132.751,68.2495 129.418,73.4162 127.5,79.5C 127.529,81.0293 128.196,82.196 129.5,83C 128.106,83.956 127.439,85.2894 127.5,87C 127.102,92.799 128.935,97.9656 133,102.5C 136.774,96.7266 140.607,91.06 144.5,85.5C 145.852,86.5244 147.185,87.5244 148.5,88.5C 144.53,91.6387 141.03,95.3053 138,99.5C 137.333,104.167 137.333,108.833 138,113.5C 138.852,114.571 139.685,115.571 140.5,116.5C 142.5,118.167 144.5,119.833 146.5,121.5C 145.85,121.804 145.183,122.137 144.5,122.5C 126.647,111.461 118.314,95.4607 119.5,74.5C 123.345,67.6576 129.012,62.9909 136.5,60.5 Z"/></g>
<g><path style="opacity:1" fill="#75e4e7" d="M 307.5,60.5 C 309.062,60.7329 310.395,61.3995 311.5,62.5C 312.584,65.0041 313.917,67.3374 315.5,69.5C 321.261,88.7838 327.595,107.784 334.5,126.5C 334.263,127.791 334.596,128.791 335.5,129.5C 335.595,131.786 336.262,133.786 337.5,135.5C 337.263,136.791 337.596,137.791 338.5,138.5C 338.263,139.791 338.596,140.791 339.5,141.5C 339.263,142.791 339.596,143.791 340.5,144.5C 340.263,145.791 340.596,146.791 341.5,147.5C 341.263,148.791 341.596,149.791 342.5,150.5C 342.263,151.791 342.596,152.791 343.5,153.5C 347.058,167.171 351.391,180.504 356.5,193.5C 356.723,197.162 357.723,200.495 359.5,203.5C 359.41,206.152 360.076,208.485 361.5,210.5C 361.232,212.099 361.566,213.432 362.5,214.5C 363.138,220.423 365.138,225.756 368.5,230.5C 368.5,231.167 368.5,231.833 368.5,232.5C 365.31,228.786 363.143,224.453 362,219.5C 361.667,220.833 361.333,222.167 361,223.5C 360,221.167 359,218.833 358,216.5C 357.667,217.167 357.333,217.833 357,218.5C 356.261,217.426 355.261,216.759 354,216.5C 352.765,217.615 351.598,217.615 350.5,216.5C 348.866,216.968 347.7,217.968 347,219.5C 346.751,218.376 346.251,217.376 345.5,216.5C 345.88,218.46 345.38,220.46 344,222.5C 343.667,221.833 343.333,221.167 343,220.5C 339.519,223.754 335.352,225.588 330.5,226C 320.784,226.978 311.117,228.145 301.5,229.5C 296.178,229.98 290.845,230.313 285.5,230.5C 300.674,227.916 316.008,225.416 331.5,223C 334.457,222.313 336.791,220.813 338.5,218.5C 338.833,217.833 339.167,217.167 339.5,216.5C 340.167,216.5 340.5,216.167 340.5,215.5C 342.362,210.225 340.696,206.558 335.5,204.5C 333.031,203.683 330.365,203.183 327.5,203C 328.833,202.667 330.167,202.333 331.5,202C 329.012,200.538 326.345,199.538 323.5,199C 328.675,198.989 331.341,196.489 331.5,191.5C 334.059,188.094 334.059,184.76 331.5,181.5C 330.341,179.75 328.674,178.75 326.5,178.5C 324.708,177.691 322.708,177.191 320.5,177C 322.833,176.667 325.167,176.333 327.5,176C 327.167,175.667 326.833,175.333 326.5,175C 323.599,175.234 320.599,174.901 317.5,174C 318.5,173.667 319.5,173.333 320.5,173C 319.833,172.833 319.167,172.667 318.5,172.5C 312.148,173.178 305.815,174.178 299.5,175.5C 297.5,175.167 295.5,174.833 293.5,174.5C 294.506,173.604 294.506,172.938 293.5,172.5C 291.013,172.782 288.347,172.782 285.5,172.5C 285.719,171.325 285.386,170.325 284.5,169.5C 283.468,171.04 282.135,171.54 280.5,171C 277.81,169.428 275.477,167.428 273.5,165C 275.167,164.667 276.833,164.333 278.5,164C 277.159,162.174 277.659,161.007 280,160.5C 281.811,161.424 281.645,162.257 279.5,163C 280.791,165.09 280.124,166.424 277.5,167C 279.809,167.006 281.975,167.172 284,167.5C 285.225,167.138 286.391,166.638 287.5,166C 286.695,164.028 285.361,162.528 283.5,161.5C 284.025,160.808 284.692,160.308 285.5,160C 282.898,159.261 281.231,157.595 280.5,155C 271.745,154.811 262.745,155.311 253.5,156.5C 253.5,155.5 253.5,154.5 253.5,153.5C 247.755,153.789 242.088,153.289 236.5,152C 234.137,151.411 233.137,149.911 233.5,147.5C 234.167,147.833 234.833,148.167 235.5,148.5C 235.918,149.222 236.584,149.722 237.5,150C 240.167,150.167 242.833,150.333 245.5,150.5C 269.034,149.876 292.368,148.21 315.5,145.5C 315.5,144.167 315.5,142.833 315.5,141.5C 318.604,137.122 317.937,133.455 313.5,130.5C 313.082,129.778 312.416,129.278 311.5,129C 287.837,129.034 264.171,129.367 240.5,130C 235.585,129.959 231.585,131.792 228.5,135.5C 227.859,134.518 227.193,133.518 226.5,132.5C 227.325,131.614 228.325,131.281 229.5,131.5C 229.799,129.396 229.466,127.396 228.5,125.5C 226.039,123.71 224.373,121.377 223.5,118.5C 224.922,119.925 226.589,120.925 228.5,121.5C 228.918,122.222 229.584,122.722 230.5,123C 255.533,123.907 280.533,123.407 305.5,121.5C 306.612,120.735 307.279,119.735 307.5,118.5C 309.586,115.322 309.92,111.988 308.5,108.5C 307.025,106.59 305.025,105.424 302.5,105C 277.167,104.333 251.833,104.333 226.5,105C 224.341,106.059 222.674,107.559 221.5,109.5C 221.322,108.305 220.989,107.138 220.5,106C 221.167,105.333 221.833,104.667 222.5,104C 221.26,100.66 219.927,97.4928 218.5,94.5C 220.637,95.7874 222.97,96.6207 225.5,97C 249.833,97.6667 274.167,97.6667 298.5,97C 301.544,94.0878 302.711,90.5878 302,86.5C 300.961,85.2899 299.794,84.2899 298.5,83.5C 298.082,82.7784 297.416,82.2784 296.5,82C 270.51,80.6157 244.51,79.949 218.5,80C 217.295,81.3756 215.962,82.5423 214.5,83.5C 214.43,79.3987 216.43,76.8987 220.5,76C 227.539,75.3648 234.372,73.8648 241,71.5C 243.151,71.6431 244.818,72.6431 246,74.5C 247.462,73.9648 249.128,73.9648 251,74.5C 252.658,74.3248 253.991,73.6582 255,72.5C 255.667,73.1667 256.333,73.8333 257,74.5C 259.401,73.5343 262.067,73.5343 265,74.5C 266.943,72.2849 268.609,72.2849 270,74.5C 273.018,73.9722 275.851,72.9722 278.5,71.5C 279.308,71.8076 279.975,72.3076 280.5,73C 278.165,74.5196 278.332,76.0196 281,77.5C 281.5,76.3333 282.333,75.5 283.5,75C 282.833,74.6667 282.167,74.3333 281.5,74C 285.66,73.8638 289.493,73.6971 293,73.5C 293.374,74.4162 293.874,75.2496 294.5,76C 297.007,76.0929 299.174,76.9262 301,78.5C 301.333,78.1667 301.667,77.8333 302,77.5C 304.178,78.893 305.178,80.5596 305,82.5C 305.667,81.1667 306.333,81.1667 307,82.5C 307.738,79.2506 308.571,75.7506 309.5,72C 307.428,68.0118 304.762,64.5118 301.5,61.5C 301.833,60.5 302.5,59.8333 303.5,59.5C 306.389,61.286 307.889,63.9527 308,67.5C 309.505,64.7725 309.338,62.4391 307.5,60.5 Z"/></g>
<g><path style="opacity:0.004" fill="#3072b3" d="M 80.5,65.5 C 80.6567,66.8734 80.49,68.2068 80,69.5C 79.235,67.9343 79.4017,66.6009 80.5,65.5 Z"/></g>
<g><path style="opacity:1" fill="#e96f46" d="M 154.5,59.5 C 172.172,61.8512 185.172,70.8512 193.5,86.5C 196.224,96.253 196.057,105.92 193,115.5C 192.617,114.944 192.117,114.611 191.5,114.5C 191.795,112.265 191.461,110.265 190.5,108.5C 186.294,98.1276 178.961,90.9609 168.5,87C 175.692,75.6833 173.025,67.35 160.5,62C 157.183,61.5017 153.85,61.335 150.5,61.5C 149.048,60.6981 147.382,60.1981 145.5,60C 148.482,59.502 151.482,59.3354 154.5,59.5 Z"/></g>
<g><path style="opacity:0.012" fill="#6be1e3" d="M 315.5,69.5 C 315.369,68.7611 315.536,68.0944 316,67.5C 316.692,68.4368 316.525,69.1034 315.5,69.5 Z"/></g>
<g><path style="opacity:0.01" fill="#2f72b4" d="M 81.5,74.5 C 80.4017,73.3991 80.235,72.0657 81,70.5C 81.49,71.7932 81.6567,73.1266 81.5,74.5 Z"/></g>
<g><path style="opacity:0.01" fill="#2d73b6" d="M 81.5,74.5 C 81.8333,74.5 82.1667,74.5 82.5,74.5C 82.1667,79.8333 81.8333,79.8333 81.5,74.5 Z"/></g>
<g><path style="opacity:1" fill="#25879e" d="M 298.5,83.5 C 297.668,84.3285 298.001,85.1618 299.5,86C 298.833,86.6667 298.167,87.3333 297.5,88C 277.123,88.8212 256.79,88.6545 236.5,87.5C 230.87,88.5724 225.204,89.0724 219.5,89C 217.138,84.2703 216.304,84.4369 217,89.5C 218.214,91.0488 219.714,92.2155 221.5,93C 220.263,93.2321 219.263,93.7321 218.5,94.5C 214.991,91.7609 213.657,88.0943 214.5,83.5C 215.962,82.5423 217.295,81.3756 218.5,80C 244.51,79.949 270.51,80.6157 296.5,82C 297.416,82.2784 298.082,82.7784 298.5,83.5 Z"/></g>
<g><path style="opacity:0.008" fill="#2e72b5" d="M 83.5,79.5 C 83.6567,80.8734 83.49,82.2068 83,83.5C 82.235,81.9343 82.4017,80.6009 83.5,79.5 Z"/></g>
<g><path style="opacity:1" fill="#3b96d8" d="M 103.5,41.5 C 113.029,41.514 122.363,42.1806 131.5,43.5C 125.738,43.1493 120.072,43.6493 114.5,45C 117.133,45.4232 119.299,46.5899 121,48.5C 122.011,47.6634 123.178,47.33 124.5,47.5C 124.351,48.552 124.517,49.552 125,50.5C 126.183,49.269 127.349,49.269 128.5,50.5C 130.829,51.7708 131.995,53.7708 132,56.5C 134.039,56.3664 136.206,56.8664 138.5,58C 137.5,58.3333 136.5,58.6667 135.5,59C 136.094,59.4643 136.761,59.631 137.5,59.5C 137.5,60.1667 137.167,60.5 136.5,60.5C 129.012,62.9909 123.345,67.6576 119.5,74.5C 117.992,76.1815 116.992,78.1815 116.5,80.5C 113.578,91.7542 115.411,102.421 122,112.5C 127.776,120.114 134.609,126.447 142.5,131.5C 142.47,132.497 142.97,133.164 144,133.5C 146.648,134.214 149.148,135.214 151.5,136.5C 154.135,138.328 157.135,139.495 160.5,140C 164.826,140.226 168.993,141.059 173,142.5C 174.243,141.664 175.41,141.997 176.5,143.5C 171.533,144.329 166.533,144.829 161.5,145C 164.146,145.497 166.813,145.664 169.5,145.5C 153.678,146.715 137.678,147.548 121.5,148C 120.956,148.717 120.289,149.217 119.5,149.5C 117.418,149.472 115.584,150.139 114,151.5C 112.7,146.905 110.867,142.572 108.5,138.5C 103.374,112.168 97.707,86.0009 91.5,60C 92.5914,57.9361 92.7581,55.7695 92,53.5C 91.1779,51.2115 90.5112,48.8782 90,46.5C 88.7949,45.9288 87.6283,45.2621 86.5,44.5C 86.7093,43.914 87.0426,43.414 87.5,43C 92.8076,42.1697 98.1409,41.6697 103.5,41.5 Z"/></g>
<g><path style="opacity:0.006" fill="#2f71b4" d="M 84.5,84.5 C 84.6567,85.8734 84.49,87.2068 84,88.5C 83.235,86.9343 83.4017,85.6009 84.5,84.5 Z"/></g>
<g><path style="opacity:1" fill="#e9e3de" d="M 150.5,61.5 C 153.85,61.335 157.183,61.5017 160.5,62C 173.025,67.35 175.692,75.6833 168.5,87C 178.961,90.9609 186.294,98.1276 190.5,108.5C 189.659,111.505 188.492,114.505 187,117.5C 174.222,122.293 161.055,122.793 147.5,119C 145.479,116.606 143.146,115.773 140.5,116.5C 139.685,115.571 138.852,114.571 138,113.5C 137.333,108.833 137.333,104.167 138,99.5C 141.03,95.3053 144.53,91.6387 148.5,88.5C 149.922,88.2914 151.255,87.7914 152.5,87C 150.04,85.5422 147.873,83.7089 146,81.5C 141.512,73.2999 143.012,66.6332 150.5,61.5 Z"/></g>
<g><path style="opacity:0.008" fill="#2f72b3" d="M 85.5,89.5 C 85.5,90.8333 85.5,92.1667 85.5,93.5C 84.1667,92.1667 84.1667,90.8333 85.5,89.5 Z"/></g>
<g><path style="opacity:1" fill="#196e84" d="M 298.5,83.5 C 299.794,84.2899 300.961,85.2899 302,86.5C 302.711,90.5878 301.544,94.0878 298.5,97C 274.167,97.6667 249.833,97.6667 225.5,97C 222.97,96.6207 220.637,95.7874 218.5,94.5C 219.263,93.7321 220.263,93.2321 221.5,93C 219.714,92.2155 218.214,91.0488 217,89.5C 216.304,84.4369 217.138,84.2703 219.5,89C 225.204,89.0724 230.87,88.5724 236.5,87.5C 256.79,88.6545 277.123,88.8212 297.5,88C 298.167,87.3333 298.833,86.6667 299.5,86C 298.001,85.1618 297.668,84.3285 298.5,83.5 Z"/></g>
<g><path style="opacity:0.01" fill="#2e73b7" d="M 85.5,93.5 C 85.8333,93.5 86.1667,93.5 86.5,93.5C 86.1667,98.8333 85.8333,98.8333 85.5,93.5 Z"/></g>
<g><path style="opacity:0.004" fill="#2d71b4" d="M 87.5,98.5 C 87.6567,99.8734 87.49,101.207 87,102.5C 86.235,100.934 86.4017,99.6009 87.5,98.5 Z"/></g>
<g><path style="opacity:0.01" fill="#2e72b5" d="M 88.5,103.5 C 88.6567,104.873 88.49,106.207 88,107.5C 87.235,105.934 87.4017,104.601 88.5,103.5 Z"/></g>
<g><path style="opacity:1" fill="#22829a" d="M 308.5,108.5 C 307.897,110.19 306.897,111.69 305.5,113C 279.325,113.936 252.992,114.77 226.5,115.5C 226.502,113.169 225.669,111.169 224,109.5C 223.503,112.146 223.336,114.813 223.5,117.5C 221.777,115.22 221.111,112.553 221.5,109.5C 222.674,107.559 224.341,106.059 226.5,105C 251.833,104.333 277.167,104.333 302.5,105C 305.025,105.424 307.025,106.59 308.5,108.5 Z"/></g>
<g><path style="opacity:0.01" fill="#2e70b3" d="M 89.5,108.5 C 89.6567,109.873 89.49,111.207 89,112.5C 88.235,110.934 88.4017,109.601 89.5,108.5 Z"/></g>
<g><path style="opacity:1" fill="#e66e48" d="M 119.5,74.5 C 118.314,95.4607 126.647,111.461 144.5,122.5C 145.183,122.137 145.85,121.804 146.5,121.5C 150.933,122.869 155.267,124.203 159.5,125.5C 158.761,125.369 158.094,125.536 157.5,126C 164.118,126.82 164.118,127.32 157.5,127.5C 151.424,126.623 145.424,125.456 139.5,124C 135.833,120.333 132.167,116.667 128.5,113C 127.552,112.517 126.552,112.351 125.5,112.5C 118.229,103.205 115.229,92.5386 116.5,80.5C 116.992,78.1815 117.992,76.1815 119.5,74.5 Z"/></g>
<g><path style="opacity:0.01" fill="#2e71b4" d="M 89.5,113.5 C 90.5735,114.251 90.7401,115.251 90,116.5C 89.5172,115.552 89.3505,114.552 89.5,113.5 Z"/></g>
<g><path style="opacity:1" fill="#16687e" d="M 308.5,108.5 C 309.92,111.988 309.586,115.322 307.5,118.5C 305.049,119.894 302.382,120.728 299.5,121C 275.836,121.5 252.169,121.667 228.5,121.5C 226.589,120.925 224.922,119.925 223.5,118.5C 223.5,118.167 223.5,117.833 223.5,117.5C 223.336,114.813 223.503,112.146 224,109.5C 225.669,111.169 226.502,113.169 226.5,115.5C 252.992,114.77 279.325,113.936 305.5,113C 306.897,111.69 307.897,110.19 308.5,108.5 Z"/></g>
<g><path style="opacity:0.004" fill="#2e71b3" d="M 91.5,117.5 C 91.6567,118.873 91.49,120.207 91,121.5C 90.235,119.934 90.4017,118.601 91.5,117.5 Z"/></g>
<g><path style="opacity:1" fill="#ceb8a8" d="M 190.5,108.5 C 191.461,110.265 191.795,112.265 191.5,114.5C 189.561,118.936 186.228,121.769 181.5,123C 174.325,125.108 166.992,125.942 159.5,125.5C 155.267,124.203 150.933,122.869 146.5,121.5C 144.5,119.833 142.5,118.167 140.5,116.5C 143.146,115.773 145.479,116.606 147.5,119C 161.055,122.793 174.222,122.293 187,117.5C 188.492,114.505 189.659,111.505 190.5,108.5 Z"/></g>
<g><path style="opacity:1" fill="#47c0c7" d="M 307.5,118.5 C 307.279,119.735 306.612,120.735 305.5,121.5C 280.533,123.407 255.533,123.907 230.5,123C 229.584,122.722 228.918,122.222 228.5,121.5C 252.169,121.667 275.836,121.5 299.5,121C 302.382,120.728 305.049,119.894 307.5,118.5 Z"/></g>
<g><path style="opacity:0.012" fill="#2d71b5" d="M 92.5,122.5 C 92.6567,123.873 92.49,125.207 92,126.5C 91.235,124.934 91.4017,123.601 92.5,122.5 Z"/></g>
<g><path style="opacity:0.012" fill="#6adfe2" d="M 334.5,126.5 C 334.351,125.448 334.517,124.448 335,123.5C 335.74,124.749 335.573,125.749 334.5,126.5 Z"/></g>
<g><path style="opacity:0.992" fill="#2979c1" d="M 83.5,43.5 C 97.5015,110.486 111.835,177.486 126.5,244.5C 131.514,269.197 136.514,293.864 141.5,318.5C 140.356,316.9 139.189,315.233 138,313.5C 138.266,305.829 136.933,298.495 134,291.5C 131.899,278.969 129.232,266.636 126,254.5C 124.284,253.448 123.284,254.114 123,256.5C 120.257,242.93 117.091,229.597 113.5,216.5C 113.167,216.5 112.833,216.5 112.5,216.5C 112.58,213.219 111.913,210.219 110.5,207.5C 110.784,205.585 110.451,203.919 109.5,202.5C 109.784,200.585 109.451,198.919 108.5,197.5C 108.768,195.901 108.434,194.568 107.5,193.5C 107.784,191.585 107.451,189.919 106.5,188.5C 106.784,186.585 106.451,184.919 105.5,183.5C 105.58,180.219 104.913,177.219 103.5,174.5C 103.784,172.585 103.451,170.919 102.5,169.5C 102.246,164.556 101.246,159.889 99.5,155.5C 99.7845,153.585 99.4511,151.919 98.5,150.5C 98.2462,145.556 97.2462,140.889 95.5,136.5C 95.2462,131.556 94.2462,126.889 92.5,122.5C 92.7845,120.585 92.4511,118.919 91.5,117.5C 91.5797,114.219 90.913,111.219 89.5,108.5C 89.7845,106.585 89.4511,104.919 88.5,103.5C 88.7845,101.585 88.4511,99.9187 87.5,98.5C 87.7845,96.5853 87.4511,94.9187 86.5,93.5C 86.7678,91.901 86.4345,90.5676 85.5,89.5C 85.7845,87.5853 85.4511,85.9187 84.5,84.5C 84.7845,82.5853 84.4511,80.9187 83.5,79.5C 83.7845,77.5853 83.4511,75.9187 82.5,74.5C 82.5797,71.2186 81.913,68.2186 80.5,65.5C 80.7845,63.5853 80.4511,61.9187 79.5,60.5C 79.3531,55.7858 79.6864,51.1191 80.5,46.5C 81.2719,45.3065 82.2719,44.3065 83.5,43.5 Z"/></g>
<g><path style="opacity:1" fill="#da5935" d="M 193.5,86.5 C 197.83,94.1751 199.496,102.508 198.5,111.5C 197.5,113.5 196.5,115.5 195.5,117.5C 186.719,131.38 174.052,136.88 157.5,134C 143.698,131.343 133.031,124.176 125.5,112.5C 126.552,112.351 127.552,112.517 128.5,113C 132.167,116.667 135.833,120.333 139.5,124C 145.424,125.456 151.424,126.623 157.5,127.5C 164.118,127.32 164.118,126.82 157.5,126C 158.094,125.536 158.761,125.369 159.5,125.5C 166.992,125.942 174.325,125.108 181.5,123C 186.228,121.769 189.561,118.936 191.5,114.5C 192.117,114.611 192.617,114.944 193,115.5C 196.057,105.92 196.224,96.253 193.5,86.5 Z"/></g>
<g><path style="opacity:0.01" fill="#2d71b3" d="M 92.5,127.5 C 93.5983,128.601 93.765,129.934 93,131.5C 92.51,130.207 92.3433,128.873 92.5,127.5 Z"/></g>
<g><path style="opacity:0.012" fill="#6ce1e3" d="M 335.5,129.5 C 335.369,128.761 335.536,128.094 336,127.5C 336.692,128.437 336.525,129.103 335.5,129.5 Z"/></g>
<g><path style="opacity:1" fill="#b1423a" d="M 116.5,80.5 C 115.229,92.5386 118.229,103.205 125.5,112.5C 133.031,124.176 143.698,131.343 157.5,134C 174.052,136.88 186.719,131.38 195.5,117.5C 192.685,126.48 186.685,132.314 177.5,135C 165.4,137.751 153.733,136.584 142.5,131.5C 134.609,126.447 127.776,120.114 122,112.5C 115.411,102.421 113.578,91.7542 116.5,80.5 Z"/></g>
<g><path style="opacity:1" fill="#24869e" d="M 313.5,130.5 C 312.668,131.329 313.001,132.162 314.5,133C 313.449,134.385 312.116,135.385 310.5,136C 296.195,137.156 281.862,137.823 267.5,138C 257.086,138.562 246.753,139.729 236.5,141.5C 234.956,141.21 233.623,140.544 232.5,139.5C 231.1,141.782 231.766,143.282 234.5,144C 239.769,145.106 245.103,145.773 250.5,146C 245.5,146.333 240.5,146.667 235.5,147C 241.157,147.499 246.824,147.666 252.5,147.5C 247.025,148.489 241.358,148.822 235.5,148.5C 234.833,148.167 234.167,147.833 233.5,147.5C 229.645,144.451 227.978,140.451 228.5,135.5C 231.585,131.792 235.585,129.959 240.5,130C 264.171,129.367 287.837,129.034 311.5,129C 312.416,129.278 313.082,129.778 313.5,130.5 Z"/></g>
<g><path style="opacity:0.012" fill="#2d70b3" d="M 93.5,132.5 C 94.5735,133.251 94.7401,134.251 94,135.5C 93.5172,134.552 93.3505,133.552 93.5,132.5 Z"/></g>
<g><path style="opacity:0.008" fill="#6adfe1" d="M 337.5,135.5 C 337.351,134.448 337.517,133.448 338,132.5C 338.74,133.749 338.573,134.749 337.5,135.5 Z"/></g>
<g><path style="opacity:0.012" fill="#2d71b6" d="M 95.5,136.5 C 95.6567,137.873 95.49,139.207 95,140.5C 94.235,138.934 94.4017,137.601 95.5,136.5 Z"/></g>
<g><path style="opacity:1" fill="#315b9d" d="M 198.5,111.5 C 197.783,117.252 196.616,122.919 195,128.5C 193.167,130.333 191.333,132.167 189.5,134C 177.084,138.877 164.417,139.711 151.5,136.5C 149.148,135.214 146.648,134.214 144,133.5C 142.97,133.164 142.47,132.497 142.5,131.5C 153.733,136.584 165.4,137.751 177.5,135C 186.685,132.314 192.685,126.48 195.5,117.5C 196.5,115.5 197.5,113.5 198.5,111.5 Z"/></g>
<g><path style="opacity:0.012" fill="#6de3e6" d="M 338.5,138.5 C 338.369,137.761 338.536,137.094 339,136.5C 339.692,137.437 339.525,138.103 338.5,138.5 Z"/></g>
<g><path style="opacity:1" fill="#1c748a" d="M 313.5,130.5 C 317.937,133.455 318.604,137.122 315.5,141.5C 313.779,143.694 311.445,144.861 308.5,145C 289.831,145.895 271.165,146.728 252.5,147.5C 246.824,147.666 241.157,147.499 235.5,147C 240.5,146.667 245.5,146.333 250.5,146C 245.103,145.773 239.769,145.106 234.5,144C 231.766,143.282 231.1,141.782 232.5,139.5C 233.623,140.544 234.956,141.21 236.5,141.5C 246.753,139.729 257.086,138.562 267.5,138C 281.862,137.823 296.195,137.156 310.5,136C 312.116,135.385 313.449,134.385 314.5,133C 313.001,132.162 312.668,131.329 313.5,130.5 Z"/></g>
<g><path style="opacity:0.012" fill="#6be0e3" d="M 339.5,141.5 C 339.369,140.761 339.536,140.094 340,139.5C 340.692,140.437 340.525,141.103 339.5,141.5 Z"/></g>
<g><path style="opacity:0.01" fill="#2d71b4" d="M 95.5,141.5 C 96.5983,142.601 96.765,143.934 96,145.5C 95.51,144.207 95.3433,142.873 95.5,141.5 Z"/></g>
<g><path style="opacity:0.012" fill="#6be0e3" d="M 340.5,144.5 C 340.369,143.761 340.536,143.094 341,142.5C 341.692,143.437 341.525,144.103 340.5,144.5 Z"/></g>
<g><path style="opacity:1" fill="#4ea5df" d="M 103.5,41.5 C 98.1409,41.6697 92.8076,42.1697 87.5,43C 87.0426,43.414 86.7093,43.914 86.5,44.5C 87.6283,45.2621 88.7949,45.9288 90,46.5C 90.5112,48.8782 91.1779,51.2115 92,53.5C 92.7581,55.7695 92.5914,57.9361 91.5,60C 97.707,86.0009 103.374,112.168 108.5,138.5C 110.867,142.572 112.7,146.905 114,151.5C 115.584,150.139 117.418,149.472 119.5,149.5C 119.5,149.833 119.5,150.167 119.5,150.5C 118.928,156.657 119.928,162.657 122.5,168.5C 122.328,169.492 122.662,170.158 123.5,170.5C 123.611,171.117 123.944,171.617 124.5,172C 132.5,172.333 140.5,172.667 148.5,173C 149.737,173.232 150.737,173.732 151.5,174.5C 143.201,175.408 134.868,176.242 126.5,177C 125.106,177.956 124.439,179.289 124.5,181C 125.742,185.798 126.742,190.631 127.5,195.5C 127.833,196.167 128.167,196.833 128.5,197.5C 127.883,197.611 127.383,197.944 127,198.5C 123.946,196.634 122.446,193.967 122.5,190.5C 121.325,190.281 120.325,190.614 119.5,191.5C 120.037,206.438 122.537,221.105 127,235.5C 127.805,238.696 127.638,241.696 126.5,244.5C 111.835,177.486 97.5015,110.486 83.5,43.5C 86.1489,41.8906 89.1489,41.0572 92.5,41C 96.3575,40.1901 100.024,40.3567 103.5,41.5 Z"/></g>
<g><path style="opacity:0.012" fill="#6bdfe2" d="M 341.5,147.5 C 341.369,146.761 341.536,146.094 342,145.5C 342.692,146.437 342.525,147.103 341.5,147.5 Z"/></g>
<g><path style="opacity:1" fill="#e9c64e" d="M 207.5,155.5 C 207.5,156.833 207.5,158.167 207.5,159.5C 179.586,162.574 151.586,164.574 123.5,165.5C 122.91,160.175 121.576,155.175 119.5,150.5C 119.5,150.167 119.5,149.833 119.5,149.5C 120.289,149.217 120.956,148.717 121.5,148C 137.678,147.548 153.678,146.715 169.5,145.5C 181.166,144.895 192.832,144.728 204.5,145C 205.94,148.364 206.94,151.864 207.5,155.5 Z"/></g>
<g><path style="opacity:0.006" fill="#2d6fb2" d="M 97.5,150.5 C 96.4017,149.399 96.235,148.066 97,146.5C 97.49,147.793 97.6567,149.127 97.5,150.5 Z"/></g>
<g><path style="opacity:1" fill="#51c7cc" d="M 315.5,141.5 C 315.5,142.833 315.5,144.167 315.5,145.5C 292.368,148.21 269.034,149.876 245.5,150.5C 242.833,150.333 240.167,150.167 237.5,150C 236.584,149.722 235.918,149.222 235.5,148.5C 241.358,148.822 247.025,148.489 252.5,147.5C 271.165,146.728 289.831,145.895 308.5,145C 311.445,144.861 313.779,143.694 315.5,141.5 Z"/></g>
<g><path style="opacity:0.012" fill="#6adfe2" d="M 342.5,150.5 C 342.369,149.761 342.536,149.094 343,148.5C 343.692,149.437 343.525,150.103 342.5,150.5 Z"/></g>
<g><path style="opacity:0.01" fill="#2c70b5" d="M 97.5,150.5 C 97.8333,150.5 98.1667,150.5 98.5,150.5C 98.1667,155.833 97.8333,155.833 97.5,150.5 Z"/></g>
<g><path style="opacity:0.012" fill="#6be0e2" d="M 343.5,153.5 C 343.369,152.761 343.536,152.094 344,151.5C 344.692,152.437 344.525,153.103 343.5,153.5 Z"/></g>
<g><path style="opacity:1" fill="#2788d3" d="M 131.5,43.5 C 152.843,44.6802 174.176,46.0136 195.5,47.5C 214.418,115.089 233.085,182.756 251.5,250.5C 250.5,250.5 249.5,250.5 248.5,250.5C 248.784,252.415 248.451,254.081 247.5,255.5C 248.729,249.914 246.729,246.081 241.5,244C 235.825,243.634 230.159,243.8 224.5,244.5C 218.462,244.057 212.462,244.724 206.5,246.5C 193.863,248.384 181.197,250.05 168.5,251.5C 161.824,251.66 155.158,251.16 148.5,250C 145.921,248.924 144.254,247.091 143.5,244.5C 144.833,244.833 146.167,245.167 147.5,245.5C 147.611,246.117 147.944,246.617 148.5,247C 162.296,247.802 175.962,246.802 189.5,244C 190.5,242.333 191.833,241 193.5,240C 208.341,239.526 222.675,236.859 236.5,232C 237.999,231.162 238.332,230.329 237.5,229.5C 241.744,224.747 241.411,220.414 236.5,216.5C 236.389,215.883 236.056,215.383 235.5,215C 220.048,214.514 204.715,215.681 189.5,218.5C 189.5,217.833 189.167,217.5 188.5,217.5C 186.708,216.691 184.708,216.191 182.5,216C 184.5,215.667 186.5,215.333 188.5,215C 187.333,214.5 186.5,213.667 186,212.5C 185.667,213.167 185.333,213.833 185,214.5C 182.381,211.111 178.881,209.611 174.5,210C 176.833,209.667 179.167,209.333 181.5,209C 179.579,208.64 177.912,207.806 176.5,206.5C 174.833,207.833 173.167,207.833 171.5,206.5C 168.568,208.281 165.568,208.781 162.5,208C 163.711,206.887 163.711,205.72 162.5,204.5C 162.977,203.522 163.643,202.689 164.5,202C 163.833,201.667 163.167,201.333 162.5,201C 164.5,200.667 166.5,200.333 168.5,200C 155.839,199.96 143.173,200.126 130.5,200.5C 130.5,200.167 130.5,199.833 130.5,199.5C 150.129,197.383 169.796,195.55 189.5,194C 190.756,193.583 191.423,192.75 191.5,191.5C 192.742,189.389 192.742,187.389 191.5,185.5C 190.802,181.245 189.802,177.078 188.5,173C 176.139,172.669 163.806,173.169 151.5,174.5C 150.737,173.732 149.737,173.232 148.5,173C 140.5,172.667 132.5,172.333 124.5,172C 123.944,171.617 123.611,171.117 123.5,170.5C 151.549,169.331 179.549,167.498 207.5,165C 208.252,164.329 208.586,163.496 208.5,162.5C 208.5,162.167 208.5,161.833 208.5,161.5C 208.795,159.265 208.461,157.265 207.5,155.5C 206.94,151.864 205.94,148.364 204.5,145C 192.832,144.728 181.166,144.895 169.5,145.5C 166.813,145.664 164.146,145.497 161.5,145C 166.533,144.829 171.533,144.329 176.5,143.5C 175.41,141.997 174.243,141.664 173,142.5C 168.993,141.059 164.826,140.226 160.5,140C 157.135,139.495 154.135,138.328 151.5,136.5C 164.417,139.711 177.084,138.877 189.5,134C 191.333,132.167 193.167,130.333 195,128.5C 196.616,122.919 197.783,117.252 198.5,111.5C 199.496,102.508 197.83,94.1751 193.5,86.5C 185.172,70.8512 172.172,61.8512 154.5,59.5C 148.977,58.2891 143.31,58.2891 137.5,59.5C 136.761,59.631 136.094,59.4643 135.5,59C 136.5,58.6667 137.5,58.3333 138.5,58C 136.206,56.8664 134.039,56.3664 132,56.5C 131.995,53.7708 130.829,51.7708 128.5,50.5C 127.349,49.269 126.183,49.269 125,50.5C 124.517,49.552 124.351,48.552 124.5,47.5C 123.178,47.33 122.011,47.6634 121,48.5C 119.299,46.5899 117.133,45.4232 114.5,45C 120.072,43.6493 125.738,43.1493 131.5,43.5 Z"/></g>
<g><path style="opacity:0.012" fill="#69dfe2" d="M 344.5,154.5 C 345.525,154.897 345.692,155.563 345,156.5C 344.536,155.906 344.369,155.239 344.5,154.5 Z"/></g>
<g><path style="opacity:0.008" fill="#2d70b4" d="M 99.5,155.5 C 99.6567,156.873 99.49,158.207 99,159.5C 98.235,157.934 98.4017,156.601 99.5,155.5 Z"/></g>
<g><path style="opacity:0.012" fill="#6bdfe2" d="M 345.5,157.5 C 346.525,157.897 346.692,158.563 346,159.5C 345.536,158.906 345.369,158.239 345.5,157.5 Z"/></g>
<g><path style="opacity:0.008" fill="#2c6fb3" d="M 99.5,160.5 C 100.598,161.601 100.765,162.934 100,164.5C 99.51,163.207 99.3433,161.873 99.5,160.5 Z"/></g>
<g><path style="opacity:0.012" fill="#69dee1" d="M 346.5,160.5 C 347.525,160.897 347.692,161.563 347,162.5C 346.536,161.906 346.369,161.239 346.5,160.5 Z"/></g>
<g><path style="opacity:1" fill="#967c3d" d="M 208.5,161.5 C 208.5,161.833 208.5,162.167 208.5,162.5C 207.711,162.783 207.044,163.283 206.5,164C 198.495,164.5 190.495,165 182.5,165.5C 190.691,162.093 199.358,160.76 208.5,161.5 Z"/></g>
<g><path style="opacity:1" fill="#bb953e" d="M 119.5,150.5 C 121.576,155.175 122.91,160.175 123.5,165.5C 151.586,164.574 179.586,162.574 207.5,159.5C 207.5,158.167 207.5,156.833 207.5,155.5C 208.461,157.265 208.795,159.265 208.5,161.5C 199.358,160.76 190.691,162.093 182.5,165.5C 162.54,167.247 142.54,168.247 122.5,168.5C 119.928,162.657 118.928,156.657 119.5,150.5 Z"/></g>
<g><path style="opacity:0.012" fill="#69dee0" d="M 347.5,163.5 C 348.525,163.897 348.692,164.563 348,165.5C 347.536,164.906 347.369,164.239 347.5,163.5 Z"/></g>
<g><path style="opacity:0.012" fill="#2c70b4" d="M 100.5,165.5 C 101.573,166.251 101.74,167.251 101,168.5C 100.517,167.552 100.351,166.552 100.5,165.5 Z"/></g>
<g><path style="opacity:1" fill="#2c5c95" d="M 208.5,162.5 C 208.586,163.496 208.252,164.329 207.5,165C 179.549,167.498 151.549,169.331 123.5,170.5C 122.662,170.158 122.328,169.492 122.5,168.5C 142.54,168.247 162.54,167.247 182.5,165.5C 190.495,165 198.495,164.5 206.5,164C 207.044,163.283 207.711,162.783 208.5,162.5 Z"/></g>
<g><path style="opacity:0.004" fill="#2b70b5" d="M 102.5,169.5 C 102.657,170.873 102.49,172.207 102,173.5C 101.235,171.934 101.402,170.601 102.5,169.5 Z"/></g>
<g><path style="opacity:1" fill="#e8e4e0" d="M 191.5,185.5 C 191.5,186.833 191.5,188.167 191.5,189.5C 170.081,190.737 148.748,192.737 127.5,195.5C 126.742,190.631 125.742,185.798 124.5,181C 124.439,179.289 125.106,177.956 126.5,177C 134.868,176.242 143.201,175.408 151.5,174.5C 163.806,173.169 176.139,172.669 188.5,173C 189.802,177.078 190.802,181.245 191.5,185.5 Z"/></g>
<g><path style="opacity:0.008" fill="#2c6fb3" d="M 103.5,174.5 C 103.657,175.873 103.49,177.207 103,178.5C 102.235,176.934 102.402,175.601 103.5,174.5 Z"/></g>
<g><path style="opacity:0.01" fill="#2c6fb2" d="M 103.5,179.5 C 104.573,180.251 104.74,181.251 104,182.5C 103.517,181.552 103.351,180.552 103.5,179.5 Z"/></g>
<g><path style="opacity:1" fill="#ea6e42" d="M 326.5,178.5 C 328.674,178.75 330.341,179.75 331.5,181.5C 330.163,182.315 329.163,183.482 328.5,185C 311.604,188.056 294.604,190.39 277.5,192C 268.864,193.244 260.364,195.078 252,197.5C 250.467,197.227 248.967,196.894 247.5,196.5C 245.198,193.828 244.865,190.828 246.5,187.5C 247.882,186.199 249.548,185.366 251.5,185C 276.458,182.261 301.458,180.095 326.5,178.5 Z"/></g>
<g><path style="opacity:1" fill="#e15c34" d="M 331.5,181.5 C 334.059,184.76 334.059,188.094 331.5,191.5C 331.167,191.5 330.833,191.5 330.5,191.5C 303.596,195.239 276.596,197.739 249.5,199C 248.619,198.292 247.953,197.458 247.5,196.5C 248.967,196.894 250.467,197.227 252,197.5C 260.364,195.078 268.864,193.244 277.5,192C 294.604,190.39 311.604,188.056 328.5,185C 329.163,183.482 330.163,182.315 331.5,181.5 Z"/></g>
<g><path style="opacity:0.008" fill="#2b70b4" d="M 105.5,183.5 C 105.657,184.873 105.49,186.207 105,187.5C 104.235,185.934 104.402,184.601 105.5,183.5 Z"/></g>
<g><path style="opacity:0.006" fill="#2c6fb3" d="M 106.5,188.5 C 106.657,189.873 106.49,191.207 106,192.5C 105.235,190.934 105.402,189.601 106.5,188.5 Z"/></g>
<g><path style="opacity:0.012" fill="#68dddf" d="M 356.5,193.5 C 356.351,192.448 356.517,191.448 357,190.5C 357.74,191.749 357.573,192.749 356.5,193.5 Z"/></g>
<g><path style="opacity:1" fill="#a6adb9" d="M 191.5,185.5 C 192.742,187.389 192.742,189.389 191.5,191.5C 170.945,194.155 150.278,196.155 129.5,197.5C 129.167,197.5 128.833,197.5 128.5,197.5C 128.167,196.833 127.833,196.167 127.5,195.5C 148.748,192.737 170.081,190.737 191.5,189.5C 191.5,188.167 191.5,186.833 191.5,185.5 Z"/></g>
<g><path style="opacity:1" fill="#2861ab" d="M 191.5,191.5 C 191.423,192.75 190.756,193.583 189.5,194C 169.796,195.55 150.129,197.383 130.5,199.5C 129.662,199.158 129.328,198.492 129.5,197.5C 150.278,196.155 170.945,194.155 191.5,191.5 Z"/></g>
<g><path style="opacity:0.008" fill="#2d6fb2" d="M 107.5,193.5 C 107.5,194.833 107.5,196.167 107.5,197.5C 106.167,196.167 106.167,194.833 107.5,193.5 Z"/></g>
<g><path style="opacity:1" fill="#c65c41" d="M 246.5,187.5 C 244.865,190.828 245.198,193.828 247.5,196.5C 247.953,197.458 248.619,198.292 249.5,199C 276.596,197.739 303.596,195.239 330.5,191.5C 330.5,191.833 330.5,192.167 330.5,192.5C 303.996,196.885 277.329,200.218 250.5,202.5C 249.391,202.443 248.391,202.11 247.5,201.5C 244.969,199.269 243.635,196.436 243.5,193C 243.124,190.345 244.124,188.512 246.5,187.5 Z"/></g>
<g><path style="opacity:0.012" fill="#68dee1" d="M 357.5,194.5 C 358.525,194.897 358.692,195.563 358,196.5C 357.536,195.906 357.369,195.239 357.5,194.5 Z"/></g>
<g><path style="opacity:1" fill="#649a93" d="M 330.5,192.5 C 327.323,195.769 323.323,197.269 318.5,197C 307.225,198.66 295.892,199.66 284.5,200C 279.167,201 273.833,202 268.5,203C 262.319,203.819 256.319,203.653 250.5,202.5C 277.329,200.218 303.996,196.885 330.5,192.5 Z"/></g>
<g><path style="opacity:0.01" fill="#2b70b5" d="M 107.5,197.5 C 107.833,197.5 108.167,197.5 108.5,197.5C 108.167,202.833 107.833,202.833 107.5,197.5 Z"/></g>
<g><path style="opacity:1" fill="#80ddde" d="M 330.5,191.5 C 330.833,191.5 331.167,191.5 331.5,191.5C 331.341,196.489 328.675,198.989 323.5,199C 326.345,199.538 329.012,200.538 331.5,202C 330.167,202.333 328.833,202.667 327.5,203C 330.365,203.183 333.031,203.683 335.5,204.5C 309.145,206.076 283.145,209.41 257.5,214.5C 256.391,214.557 255.391,214.89 254.5,215.5C 252.078,216.692 251.078,218.692 251.5,221.5C 251.442,224.078 252.109,226.411 253.5,228.5C 252.778,228.918 252.278,229.584 252,230.5C 245.843,224.767 246.01,219.267 252.5,214C 252.167,213.667 251.833,213.333 251.5,213C 253.597,211.39 255.93,210.223 258.5,209.5C 255.224,208.893 251.891,207.56 248.5,205.5C 247.571,204.311 247.238,202.978 247.5,201.5C 248.391,202.11 249.391,202.443 250.5,202.5C 256.319,203.653 262.319,203.819 268.5,203C 273.833,202 279.167,201 284.5,200C 295.892,199.66 307.225,198.66 318.5,197C 323.323,197.269 327.323,195.769 330.5,192.5C 330.5,192.167 330.5,191.833 330.5,191.5 Z"/></g>
<g><path style="opacity:1" fill="#2f8fd5" d="M 188.5,217.5 C 177.429,217.759 166.429,218.759 155.5,220.5C 152.123,220.959 148.789,221.626 145.5,222.5C 142.702,220.318 140.368,220.485 138.5,223C 139.741,224.487 139.241,225.32 137,225.5C 135.289,225.561 133.956,224.894 133,223.5C 131.694,217.525 130.861,211.692 130.5,206C 130.759,204.739 131.426,203.739 132.5,203C 131.619,202.292 130.953,201.458 130.5,200.5C 143.173,200.126 155.839,199.96 168.5,200C 166.5,200.333 164.5,200.667 162.5,201C 163.167,201.333 163.833,201.667 164.5,202C 163.643,202.689 162.977,203.522 162.5,204.5C 163.711,205.72 163.711,206.887 162.5,208C 165.568,208.781 168.568,208.281 171.5,206.5C 173.167,207.833 174.833,207.833 176.5,206.5C 177.912,207.806 179.579,208.64 181.5,209C 179.167,209.333 176.833,209.667 174.5,210C 178.881,209.611 182.381,211.111 185,214.5C 185.333,213.833 185.667,213.167 186,212.5C 186.5,213.667 187.333,214.5 188.5,215C 186.5,215.333 184.5,215.667 182.5,216C 184.708,216.191 186.708,216.691 188.5,217.5 Z"/></g>
<g><path style="opacity:0.012" fill="#66dcdf" d="M 360.5,203.5 C 360.167,203.5 359.833,203.5 359.5,203.5C 359.833,199.5 360.167,199.5 360.5,203.5 Z"/></g>
<g><path style="opacity:0.008" fill="#2b6fb3" d="M 109.5,202.5 C 109.657,203.873 109.49,205.207 109,206.5C 108.235,204.934 108.402,203.601 109.5,202.5 Z"/></g>
<g><path style="opacity:0.01" fill="#65dcde" d="M 360.5,203.5 C 361.573,204.251 361.74,205.251 361,206.5C 360.517,205.552 360.351,204.552 360.5,203.5 Z"/></g>
<g><path style="opacity:1" fill="#e96a3e" d="M 335.5,204.5 C 340.696,206.558 342.362,210.225 340.5,215.5C 339.686,213.369 339.186,211.036 339,208.5C 336.55,212.311 333.05,214.477 328.5,215C 309.84,217.666 291.173,220.332 272.5,223C 269.363,223.487 266.53,224.654 264,226.5C 261.966,226.568 260.466,225.734 259.5,224C 260.322,221.566 260.656,219.066 260.5,216.5C 258.821,216.715 257.821,216.048 257.5,214.5C 283.145,209.41 309.145,206.076 335.5,204.5 Z"/></g>
<g><path style="opacity:0.008" fill="#2b6fb3" d="M 110.5,207.5 C 110.657,208.873 110.49,210.207 110,211.5C 109.235,209.934 109.402,208.601 110.5,207.5 Z"/></g>
<g><path style="opacity:1" fill="#de663d" d="M 340.5,215.5 C 340.5,216.167 340.167,216.5 339.5,216.5C 313.581,220.798 287.581,224.798 261.5,228.5C 259.571,228.46 257.738,228.127 256,227.5C 253.435,223.772 252.935,219.772 254.5,215.5C 255.391,214.89 256.391,214.557 257.5,214.5C 257.821,216.048 258.821,216.715 260.5,216.5C 260.656,219.066 260.322,221.566 259.5,224C 260.466,225.734 261.966,226.568 264,226.5C 266.53,224.654 269.363,223.487 272.5,223C 291.173,220.332 309.84,217.666 328.5,215C 333.05,214.477 336.55,212.311 339,208.5C 339.186,211.036 339.686,213.369 340.5,215.5 Z"/></g>
<g><path style="opacity:0.012" fill="#65dcdf" d="M 361.5,210.5 C 361.351,209.448 361.517,208.448 362,207.5C 362.74,208.749 362.573,209.749 361.5,210.5 Z"/></g>
<g><path style="opacity:0.012" fill="#66dee1" d="M 363.5,214.5 C 363.167,214.5 362.833,214.5 362.5,214.5C 362.833,210.5 363.167,210.5 363.5,214.5 Z"/></g>
<g><path style="opacity:0.008" fill="#2c6fb3" d="M 111.5,216.5 C 110.402,215.399 110.235,214.066 111,212.5C 111.49,213.793 111.657,215.127 111.5,216.5 Z"/></g>
<g><path style="opacity:1" fill="#e8e3df" d="M 236.5,216.5 C 235.453,217.078 235.62,217.744 237,218.5C 237.026,222.285 235.526,225.452 232.5,228C 221.888,229.754 211.221,231.254 200.5,232.5C 198.307,232.674 196.473,232.007 195,230.5C 194.768,231.737 194.268,232.737 193.5,233.5C 193.233,231.035 192.566,228.701 191.5,226.5C 191.44,223.659 190.774,220.993 189.5,218.5C 204.715,215.681 220.048,214.514 235.5,215C 236.056,215.383 236.389,215.883 236.5,216.5 Z"/></g>
<g><path style="opacity:0.012" fill="#62d9dc" d="M 363.5,214.5 C 364.573,215.251 364.74,216.251 364,217.5C 363.517,216.552 363.351,215.552 363.5,214.5 Z"/></g>
<g><path style="opacity:0.008" fill="#2b70b3" d="M 111.5,216.5 C 111.833,216.5 112.167,216.5 112.5,216.5C 112.167,221.833 111.833,221.833 111.5,216.5 Z"/></g>
<g><path style="opacity:1" fill="#eac94f" d="M 188.5,217.5 C 189.167,217.5 189.5,217.833 189.5,218.5C 190.774,220.993 191.44,223.659 191.5,226.5C 190.518,225.859 189.518,225.193 188.5,224.5C 178.731,227.609 168.731,230.109 158.5,232C 155.537,233.961 152.871,236.294 150.5,239C 148.527,239.495 146.527,239.662 144.5,239.5C 141.083,237.109 139.75,233.775 140.5,229.5C 141.222,229.082 141.722,228.416 142,227.5C 142.502,230.513 143.002,233.513 143.5,236.5C 144.552,236.649 145.552,236.483 146.5,236C 147.641,233.692 149.308,231.859 151.5,230.5C 152.407,227.579 152.74,224.579 152.5,221.5C 153.791,221.737 154.791,221.404 155.5,220.5C 166.429,218.759 177.429,217.759 188.5,217.5 Z"/></g>
<g><path style="opacity:0.006" fill="#2b6eb1" d="M 113.5,221.5 C 113.657,222.873 113.49,224.207 113,225.5C 112.235,223.934 112.402,222.601 113.5,221.5 Z"/></g>
<g><path style="opacity:1" fill="#ac7758" d="M 254.5,215.5 C 252.935,219.772 253.435,223.772 256,227.5C 257.738,228.127 259.571,228.46 261.5,228.5C 287.581,224.798 313.581,220.798 339.5,216.5C 339.167,217.167 338.833,217.833 338.5,218.5C 322.123,221.75 305.79,224.75 289.5,227.5C 278.551,229.047 267.551,230.047 256.5,230.5C 255.5,229.833 254.5,229.167 253.5,228.5C 252.109,226.411 251.442,224.078 251.5,221.5C 251.078,218.692 252.078,216.692 254.5,215.5 Z"/></g>
<g><path style="opacity:1" fill="#eed26c" d="M 155.5,220.5 C 154.791,221.404 153.791,221.737 152.5,221.5C 152.74,224.579 152.407,227.579 151.5,230.5C 149.308,231.859 147.641,233.692 146.5,236C 145.552,236.483 144.552,236.649 143.5,236.5C 143.002,233.513 142.502,230.513 142,227.5C 141.722,228.416 141.222,229.082 140.5,229.5C 140.5,228.833 140.5,228.167 140.5,227.5C 141.973,225.605 143.64,223.939 145.5,222.5C 148.789,221.626 152.123,220.959 155.5,220.5 Z"/></g>
<g><path style="opacity:0.01" fill="#2b6fb3" d="M 113.5,226.5 C 114.573,227.251 114.74,228.251 114,229.5C 113.517,228.552 113.351,227.552 113.5,226.5 Z"/></g>
<g><path style="opacity:1" fill="#54bbb9" d="M 338.5,218.5 C 336.791,220.813 334.457,222.313 331.5,223C 316.008,225.416 300.674,227.916 285.5,230.5C 279.042,231.491 272.542,232.158 266,232.5C 262.979,232.498 260.146,232.164 257.5,231.5C 268.503,231.823 279.17,230.49 289.5,227.5C 305.79,224.75 322.123,221.75 338.5,218.5 Z"/></g>
<g><path style="opacity:1" fill="#e7c140" d="M 191.5,226.5 C 192.566,228.701 193.233,231.035 193.5,233.5C 193.5,234.833 193.5,236.167 193.5,237.5C 193.167,237.5 192.833,237.5 192.5,237.5C 179.266,238.633 166.099,240.3 153,242.5C 151.167,242.333 149.333,242.167 147.5,242C 146.058,241.623 145.058,240.79 144.5,239.5C 146.527,239.662 148.527,239.495 150.5,239C 152.871,236.294 155.537,233.961 158.5,232C 168.731,230.109 178.731,227.609 188.5,224.5C 189.518,225.193 190.518,225.859 191.5,226.5 Z"/></g>
<g><path style="opacity:1" fill="#d7d1ca" d="M 236.5,216.5 C 241.411,220.414 241.744,224.747 237.5,229.5C 234.739,231.212 231.739,232.378 228.5,233C 216.825,234.502 205.158,236.002 193.5,237.5C 193.5,236.167 193.5,234.833 193.5,233.5C 194.268,232.737 194.768,231.737 195,230.5C 196.473,232.007 198.307,232.674 200.5,232.5C 211.221,231.254 221.888,229.754 232.5,228C 235.526,225.452 237.026,222.285 237,218.5C 235.62,217.744 235.453,217.078 236.5,216.5 Z"/></g>
<g><path style="opacity:1" fill="#7ae9eb" d="M 368.5,232.5 C 370.5,234.167 372.5,235.833 374.5,237.5C 374.5,237.833 374.5,238.167 374.5,238.5C 373.778,238.918 373.278,239.584 373,240.5C 372.174,238.595 371.007,238.261 369.5,239.5C 355.733,272.642 343.9,306.308 334,340.5C 332.414,342.67 331.08,345.004 330,347.5C 327.205,349.293 324.705,351.46 322.5,354C 311.633,357.8 300.633,361.133 289.5,364C 287.809,365.405 285.976,366.572 284,367.5C 283.768,366.263 283.268,365.263 282.5,364.5C 281.492,360.404 280.492,356.404 279.5,352.5C 270.896,319.027 261.896,285.694 252.5,252.5C 253.93,252.579 255.264,252.246 256.5,251.5C 257.167,252.167 257.833,252.833 258.5,253.5C 262.391,251.777 265.057,248.944 266.5,245C 265.833,244.667 265.167,244.333 264.5,244C 266.441,243.257 268.274,243.424 270,244.5C 274.19,240.649 278.69,237.149 283.5,234C 289.899,233.296 295.899,231.796 301.5,229.5C 311.117,228.145 320.784,226.978 330.5,226C 335.352,225.588 339.519,223.754 343,220.5C 343.333,221.167 343.667,221.833 344,222.5C 345.38,220.46 345.88,218.46 345.5,216.5C 346.251,217.376 346.751,218.376 347,219.5C 347.7,217.968 348.866,216.968 350.5,216.5C 351.598,217.615 352.765,217.615 354,216.5C 355.261,216.759 356.261,217.426 357,218.5C 357.333,217.833 357.667,217.167 358,216.5C 359,218.833 360,221.167 361,223.5C 361.333,222.167 361.667,220.833 362,219.5C 363.143,224.453 365.31,228.786 368.5,232.5 Z"/></g>
<g><path style="opacity:0.012" fill="#6adee0" d="M 369.5,230.5 C 369.167,230.5 368.833,230.5 368.5,230.5C 368.833,227.833 369.167,227.833 369.5,230.5 Z"/></g>
<g><path style="opacity:1" fill="#5f948a" d="M 289.5,227.5 C 279.17,230.49 268.503,231.823 257.5,231.5C 256.833,231.5 256.5,231.167 256.5,230.5C 267.551,230.047 278.551,229.047 289.5,227.5 Z"/></g>
<g><path style="opacity:0.008" fill="#6edee0" d="M 369.5,230.5 C 370.833,231.167 370.833,231.167 369.5,230.5 Z"/></g>
<g><path style="opacity:0.012" fill="#2a6fb3" d="M 114.5,231.5 C 115.573,232.251 115.74,233.251 115,234.5C 114.517,233.552 114.351,232.552 114.5,231.5 Z"/></g>
<g><path style="opacity:0.008" fill="#7fe5e6" d="M 375.5,237.5 C 374.833,236.167 374.833,236.167 375.5,237.5 Z"/></g>
<g><path style="opacity:0.006" fill="#2b6fb3" d="M 116.5,235.5 C 116.657,236.873 116.49,238.207 116,239.5C 115.235,237.934 115.402,236.601 116.5,235.5 Z"/></g>
<g><path style="opacity:0.012" fill="#5ccfd1" d="M 375.5,237.5 C 376.598,238.601 376.765,239.934 376,241.5C 375.51,240.207 375.343,238.873 375.5,237.5 Z"/></g>
<g><path style="opacity:0.004" fill="#2b6eb1" d="M 117.5,240.5 C 117.5,241.833 117.5,243.167 117.5,244.5C 116.167,243.167 116.167,241.833 117.5,240.5 Z"/></g>
<g><path style="opacity:1" fill="#b78636" d="M 140.5,227.5 C 140.5,228.167 140.5,228.833 140.5,229.5C 139.75,233.775 141.083,237.109 144.5,239.5C 145.058,240.79 146.058,241.623 147.5,242C 149.333,242.167 151.167,242.333 153,242.5C 166.099,240.3 179.266,238.633 192.5,237.5C 191.313,239.975 189.313,240.975 186.5,240.5C 176.302,241.755 166.302,243.422 156.5,245.5C 153.5,245.5 150.5,245.5 147.5,245.5C 146.167,245.167 144.833,244.833 143.5,244.5C 138.333,239.466 137.333,233.799 140.5,227.5 Z"/></g>
<g><path style="opacity:1" fill="#2c425a" d="M 186.5,240.5 C 184.04,241.891 181.374,243.058 178.5,244C 171.214,245.186 163.881,245.686 156.5,245.5C 166.302,243.422 176.302,241.755 186.5,240.5 Z"/></g>
<g><path style="opacity:0.012" fill="#56c8ca" d="M 374.5,242.5 C 375.833,243.5 375.833,244.5 374.5,245.5C 374.5,244.5 374.5,243.5 374.5,242.5 Z"/></g>
<g><path style="opacity:0.012" fill="#2970b6" d="M 117.5,244.5 C 117.833,244.5 118.167,244.5 118.5,244.5C 118.167,249.833 117.833,249.833 117.5,244.5 Z"/></g>
<g><path style="opacity:1" fill="#e3e0dc" d="M 247.5,255.5 C 247.267,257.062 246.6,258.395 245.5,259.5C 240.178,262.248 234.512,263.915 228.5,264.5C 228.748,257.497 227.415,250.83 224.5,244.5C 230.159,243.8 235.825,243.634 241.5,244C 246.729,246.081 248.729,249.914 247.5,255.5 Z"/></g>
<g><path style="opacity:1" fill="#245b96" d="M 237.5,229.5 C 238.332,230.329 237.999,231.162 236.5,232C 222.675,236.859 208.341,239.526 193.5,240C 191.833,241 190.5,242.333 189.5,244C 175.962,246.802 162.296,247.802 148.5,247C 147.944,246.617 147.611,246.117 147.5,245.5C 150.5,245.5 153.5,245.5 156.5,245.5C 163.881,245.686 171.214,245.186 178.5,244C 181.374,243.058 184.04,241.891 186.5,240.5C 189.313,240.975 191.313,239.975 192.5,237.5C 192.833,237.5 193.167,237.5 193.5,237.5C 205.158,236.002 216.825,234.502 228.5,233C 231.739,232.378 234.739,231.212 237.5,229.5 Z"/></g>
<g><path style="opacity:0.012" fill="#56c8ca" d="M 373.5,245.5 C 373.833,245.5 374.167,245.5 374.5,245.5C 374.737,246.791 374.404,247.791 373.5,248.5C 373.5,247.5 373.5,246.5 373.5,245.5 Z"/></g>
<g><path style="opacity:1" fill="#ebca53" d="M 206.5,246.5 C 206.5,247.5 206.5,248.5 206.5,249.5C 210.311,249.596 210.311,250.262 206.5,251.5C 206.709,252.086 207.043,252.586 207.5,253C 193.137,257.172 178.804,261.172 164.5,265C 161.833,267.333 159.167,269.667 156.5,272C 154.866,272.494 153.199,272.66 151.5,272.5C 149.827,271.657 148.66,270.324 148,268.5C 147.366,265.445 147.532,262.445 148.5,259.5C 150.253,257.777 152.253,256.277 154.5,255C 159.278,253.751 163.945,252.584 168.5,251.5C 181.197,250.05 193.863,248.384 206.5,246.5 Z"/></g>
<g><path style="opacity:0.012" fill="#56c8ca" d="M 372.5,248.5 C 372.833,248.5 373.167,248.5 373.5,248.5C 373.167,251.167 372.833,251.167 372.5,248.5 Z"/></g>
<g><path style="opacity:0.012" fill="#2a6fb4" d="M 119.5,249.5 C 119.657,250.873 119.49,252.207 119,253.5C 118.235,251.934 118.402,250.601 119.5,249.5 Z"/></g>
<g><path style="opacity:1" fill="#e7c241" d="M 224.5,244.5 C 227.415,250.83 228.748,257.497 228.5,264.5C 227.833,264.833 227.167,265.167 226.5,265.5C 206.055,267.873 185.721,271.04 165.5,275C 161.129,275.828 156.795,275.661 152.5,274.5C 152.137,273.817 151.804,273.15 151.5,272.5C 153.199,272.66 154.866,272.494 156.5,272C 159.167,269.667 161.833,267.333 164.5,265C 178.804,261.172 193.137,257.172 207.5,253C 207.043,252.586 206.709,252.086 206.5,251.5C 210.311,250.262 210.311,249.596 206.5,249.5C 206.5,248.5 206.5,247.5 206.5,246.5C 212.462,244.724 218.462,244.057 224.5,244.5 Z"/></g>
<g><path style="opacity:0.008" fill="#55c6c8" d="M 371.5,251.5 C 372.525,251.897 372.692,252.563 372,253.5C 371.536,252.906 371.369,252.239 371.5,251.5 Z"/></g>
<g><path style="opacity:1" fill="#55e7ea" d="M 308.5,254.5 C 310.164,260.656 312.33,266.656 315,272.5C 315.298,280.982 317.298,288.982 321,296.5C 322.664,303.809 324.331,311.142 326,318.5C 326.602,324.084 326.102,329.584 324.5,335C 324.316,336.376 323.649,337.209 322.5,337.5C 322.118,331.722 320.285,326.389 317,321.5C 316.118,318.211 315.452,314.877 315,311.5C 306.444,293.123 301.61,273.79 300.5,253.5C 302.401,253.567 304.234,253.233 306,252.5C 307.011,253.056 307.844,253.722 308.5,254.5 Z"/></g>
<g><path style="opacity:0.008" fill="#55c6c8" d="M 370.5,254.5 C 371.525,254.897 371.692,255.563 371,256.5C 370.536,255.906 370.369,255.239 370.5,254.5 Z"/></g>
<g><path style="opacity:0.006" fill="#2b6eb2" d="M 120.5,254.5 C 120.657,255.873 120.49,257.207 120,258.5C 119.235,256.934 119.402,255.601 120.5,254.5 Z"/></g>
<g><path style="opacity:1" fill="#7bf0f3" d="M 308.5,254.5 C 307.844,253.722 307.011,253.056 306,252.5C 304.234,253.233 302.401,253.567 300.5,253.5C 301.61,273.79 306.444,293.123 315,311.5C 315.452,314.877 316.118,318.211 317,321.5C 320.285,326.389 322.118,331.722 322.5,337.5C 322.649,338.552 322.483,339.552 322,340.5C 321.7,331.705 320.033,331.705 317,340.5C 316.286,337.405 315.286,334.405 314,331.5C 313.667,335.833 313.333,340.167 313,344.5C 310.828,340.153 308.162,336.153 305,332.5C 304.316,331.216 304.483,330.049 305.5,329C 303.408,328.047 303.075,326.714 304.5,325C 302.647,322.429 300.981,319.762 299.5,317C 300.634,315.984 300.301,315.317 298.5,315C 299.022,314.439 299.355,313.772 299.5,313C 297.727,310.123 296.393,307.456 295.5,305C 295.645,304.228 295.978,303.561 296.5,303C 293.758,295.064 291.091,287.23 288.5,279.5C 289.805,276.036 289.472,272.702 287.5,269.5C 287.053,260.983 289.553,253.316 295,246.5C 295.667,247.833 296.333,247.833 297,246.5C 297.617,245.551 297.451,244.718 296.5,244C 297.77,243.1 298.77,241.934 299.5,240.5C 302.405,239.113 305.405,238.279 308.5,238C 307.304,237.346 307.304,236.846 308.5,236.5C 310.224,237.661 311.89,237.495 313.5,236C 312.304,235.346 312.304,234.846 313.5,234.5C 314.541,236.991 315.374,236.991 316,234.5C 318.285,236.46 320.618,236.126 323,233.5C 324.086,235.847 325.419,235.847 327,233.5C 327.873,233.735 328.707,234.069 329.5,234.5C 329.833,233.833 330.167,233.167 330.5,232.5C 331.842,233.902 332.676,233.569 333,231.5C 336.563,231.675 340.063,231.675 343.5,231.5C 345.811,230.786 347.978,229.786 350,228.5C 350.667,229.167 351.333,229.833 352,230.5C 355.026,228.983 358.193,227.65 361.5,226.5C 363.984,228.536 364.984,231.202 364.5,234.5C 366.199,234.34 367.866,234.506 369.5,235C 367.956,235.29 366.623,235.956 365.5,237C 347.718,239.01 330.051,241.676 312.5,245C 311.5,245.5 310.5,246 309.5,246.5C 308.52,249.086 308.187,251.753 308.5,254.5 Z"/></g>
<g><path style="opacity:0.004" fill="#55c5c7" d="M 369.5,259.5 C 369.369,258.761 369.536,258.094 370,257.5C 370.692,258.437 370.525,259.103 369.5,259.5 Z"/></g>
<g><path style="opacity:0.01" fill="#2a6eb2" d="M 121.5,263.5 C 120.402,262.399 120.235,261.066 121,259.5C 121.49,260.793 121.657,262.127 121.5,263.5 Z"/></g>
<g><path style="opacity:0.012" fill="#58cbcd" d="M 368.5,259.5 C 368.833,259.5 369.167,259.5 369.5,259.5C 369.737,260.791 369.404,261.791 368.5,262.5C 368.5,261.5 368.5,260.5 368.5,259.5 Z"/></g>
<g><path style="opacity:1" fill="#65d7d9" d="M 374.5,238.5 C 374.5,239.833 374.5,241.167 374.5,242.5C 373.596,243.209 373.263,244.209 373.5,245.5C 372.596,246.209 372.263,247.209 372.5,248.5C 371.596,249.209 371.263,250.209 371.5,251.5C 370.596,252.209 370.263,253.209 370.5,254.5C 369.069,255.78 368.402,257.447 368.5,259.5C 367.596,260.209 367.263,261.209 367.5,262.5C 366.596,263.209 366.263,264.209 366.5,265.5C 365.596,266.209 365.263,267.209 365.5,268.5C 364.069,269.78 363.402,271.447 363.5,273.5C 362.596,274.209 362.263,275.209 362.5,276.5C 361.596,277.209 361.263,278.209 361.5,279.5C 360.069,280.78 359.402,282.447 359.5,284.5C 358.596,285.209 358.263,286.209 358.5,287.5C 357.596,288.209 357.263,289.209 357.5,290.5C 356.662,290.842 356.328,291.508 356.5,292.5C 355.596,293.209 355.263,294.209 355.5,295.5C 354.596,296.209 354.263,297.209 354.5,298.5C 353.662,298.842 353.328,299.508 353.5,300.5C 352.596,301.209 352.263,302.209 352.5,303.5C 351.596,304.209 351.263,305.209 351.5,306.5C 350.069,307.78 349.402,309.447 349.5,311.5C 348.596,312.209 348.263,313.209 348.5,314.5C 347.662,314.842 347.328,315.508 347.5,316.5C 346.596,317.209 346.263,318.209 346.5,319.5C 345.069,320.78 344.402,322.447 344.5,324.5C 343.596,325.209 343.263,326.209 343.5,327.5C 342.662,327.842 342.328,328.508 342.5,329.5C 341.069,330.78 340.402,332.447 340.5,334.5C 339.662,334.842 339.328,335.508 339.5,336.5C 337.659,338.849 336.326,341.515 335.5,344.5C 334.662,344.842 334.328,345.508 334.5,346.5C 333.833,346.5 333.5,346.833 333.5,347.5C 331.457,348.579 330.124,350.246 329.5,352.5C 328.833,352.5 328.5,352.833 328.5,353.5C 327.833,353.5 327.5,353.833 327.5,354.5C 325.973,354.427 324.973,355.094 324.5,356.5C 322.973,356.427 321.973,357.094 321.5,358.5C 320.508,358.328 319.842,358.662 319.5,359.5C 317.447,359.402 315.78,360.069 314.5,361.5C 313.508,361.328 312.842,361.662 312.5,362.5C 310.447,362.402 308.78,363.069 307.5,364.5C 304.848,364.41 302.515,365.076 300.5,366.5C 299.209,366.263 298.209,366.596 297.5,367.5C 296.209,367.263 295.209,367.596 294.5,368.5C 293.209,368.263 292.209,368.596 291.5,369.5C 287.838,369.723 284.505,370.723 281.5,372.5C 281.167,372.5 280.833,372.5 280.5,372.5C 280.557,371.391 280.89,370.391 281.5,369.5C 282.451,368.081 282.784,366.415 282.5,364.5C 283.268,365.263 283.768,366.263 284,367.5C 285.976,366.572 287.809,365.405 289.5,364C 300.633,361.133 311.633,357.8 322.5,354C 324.705,351.46 327.205,349.293 330,347.5C 331.08,345.004 332.414,342.67 334,340.5C 343.9,306.308 355.733,272.642 369.5,239.5C 371.007,238.261 372.174,238.595 373,240.5C 373.278,239.584 373.778,238.918 374.5,238.5 Z"/></g>
<g><path style="opacity:1" fill="#3b99d9" d="M 128.5,197.5 C 128.833,197.5 129.167,197.5 129.5,197.5C 129.328,198.492 129.662,199.158 130.5,199.5C 130.5,199.833 130.5,200.167 130.5,200.5C 130.953,201.458 131.619,202.292 132.5,203C 131.426,203.739 130.759,204.739 130.5,206C 130.861,211.692 131.694,217.525 133,223.5C 133.956,224.894 135.289,225.561 137,225.5C 139.241,225.32 139.741,224.487 138.5,223C 140.368,220.485 142.702,220.318 145.5,222.5C 143.64,223.939 141.973,225.605 140.5,227.5C 137.333,233.799 138.333,239.466 143.5,244.5C 144.254,247.091 145.921,248.924 148.5,250C 155.158,251.16 161.824,251.66 168.5,251.5C 163.945,252.584 159.278,253.751 154.5,255C 152.253,256.277 150.253,257.777 148.5,259.5C 147.542,259.953 146.708,260.619 146,261.5C 144.445,267.793 145.945,273.126 150.5,277.5C 149.522,277.811 148.855,278.478 148.5,279.5C 149.423,281.924 150.923,283.924 153,285.5C 153.192,287.577 153.692,289.577 154.5,291.5C 155.086,291.291 155.586,290.957 156,290.5C 157.271,291.883 158.771,292.883 160.5,293.5C 160.167,294.5 159.5,295.167 158.5,295.5C 153.745,298.537 152.245,302.871 154,308.5C 154.41,309.901 154.91,311.234 155.5,312.5C 154.488,314.964 152.655,316.631 150,317.5C 149.125,318.873 148.625,320.373 148.5,322C 150.123,340.138 152.456,358.471 155.5,377C 155.472,378.07 155.139,378.903 154.5,379.5C 150.544,359.05 146.21,338.717 141.5,318.5C 136.514,293.864 131.514,269.197 126.5,244.5C 127.638,241.696 127.805,238.696 127,235.5C 122.537,221.105 120.037,206.438 119.5,191.5C 120.325,190.614 121.325,190.281 122.5,190.5C 122.446,193.967 123.946,196.634 127,198.5C 127.383,197.944 127.883,197.611 128.5,197.5 Z"/></g>
<g><path style="opacity:0.012" fill="#56c8ca" d="M 367.5,262.5 C 367.833,262.5 368.167,262.5 368.5,262.5C 368.167,265.167 367.833,265.167 367.5,262.5 Z"/></g>
<g><path style="opacity:0.012" fill="#2a6eb3" d="M 121.5,263.5 C 121.833,263.5 122.167,263.5 122.5,263.5C 122.167,268.833 121.833,268.833 121.5,263.5 Z"/></g>
<g><path style="opacity:0.008" fill="#56c6c8" d="M 366.5,265.5 C 367.525,265.897 367.692,266.563 367,267.5C 366.536,266.906 366.369,266.239 366.5,265.5 Z"/></g>
<g><path style="opacity:0.012" fill="#2a6eb2" d="M 123.5,268.5 C 123.657,269.873 123.49,271.207 123,272.5C 122.235,270.934 122.402,269.601 123.5,268.5 Z"/></g>
<g><path style="opacity:1" fill="#2e435d" d="M 221.5,267.5 C 214.881,270.089 207.881,271.423 200.5,271.5C 207.238,269.437 214.238,268.103 221.5,267.5 Z"/></g>
<g><path style="opacity:0.008" fill="#55c6c7" d="M 365.5,268.5 C 366.525,268.897 366.692,269.563 366,270.5C 365.536,269.906 365.369,269.239 365.5,268.5 Z"/></g>
<g><path style="opacity:1" fill="#b98b39" d="M 148.5,259.5 C 147.532,262.445 147.366,265.445 148,268.5C 148.66,270.324 149.827,271.657 151.5,272.5C 151.804,273.15 152.137,273.817 152.5,274.5C 156.795,275.661 161.129,275.828 165.5,275C 185.721,271.04 206.055,267.873 226.5,265.5C 224.972,266.309 223.306,266.976 221.5,267.5C 214.238,268.103 207.238,269.437 200.5,271.5C 184.921,274.483 169.254,276.816 153.5,278.5C 152.391,278.443 151.391,278.11 150.5,277.5C 145.945,273.126 144.445,267.793 146,261.5C 146.708,260.619 147.542,259.953 148.5,259.5 Z"/></g>
<g><path style="opacity:0.004" fill="#56c5c6" d="M 364.5,273.5 C 364.369,272.761 364.536,272.094 365,271.5C 365.692,272.437 365.525,273.103 364.5,273.5 Z"/></g>
<g><path style="opacity:0.01" fill="#2a6eb2" d="M 124.5,277.5 C 123.402,276.399 123.235,275.066 124,273.5C 124.49,274.793 124.657,276.127 124.5,277.5 Z"/></g>
<g><path style="opacity:0.012" fill="#57c7c9" d="M 363.5,273.5 C 363.833,273.5 364.167,273.5 364.5,273.5C 364.737,274.791 364.404,275.791 363.5,276.5C 363.5,275.5 363.5,274.5 363.5,273.5 Z"/></g>
<g><path style="opacity:1" fill="#22466d" d="M 200.5,271.5 C 199.571,272.315 198.571,273.148 197.5,274C 183.654,277.311 169.654,279.311 155.5,280C 154.584,279.722 153.918,279.222 153.5,278.5C 169.254,276.816 184.921,274.483 200.5,271.5 Z"/></g>
<g><path style="opacity:0.008" fill="#57c7c9" d="M 362.5,276.5 C 362.833,276.5 363.167,276.5 363.5,276.5C 363.167,279.167 362.833,279.167 362.5,276.5 Z"/></g>
<g><path style="opacity:0.01" fill="#296fb5" d="M 124.5,277.5 C 124.833,277.5 125.167,277.5 125.5,277.5C 125.167,282.833 124.833,282.833 124.5,277.5 Z"/></g>
<g><path style="opacity:1" fill="#2c88cc" d="M 218.5,280.5 C 213.5,281.833 208.5,283.167 203.5,284.5C 188.9,286.353 174.566,289.353 160.5,293.5C 158.771,292.883 157.271,291.883 156,290.5C 155.586,290.957 155.086,291.291 154.5,291.5C 153.692,289.577 153.192,287.577 153,285.5C 150.923,283.924 149.423,281.924 148.5,279.5C 148.855,278.478 149.522,277.811 150.5,277.5C 152.196,282.022 155.529,284.022 160.5,283.5C 169.874,282.382 179.207,281.049 188.5,279.5C 195.874,279.616 203.208,279.116 210.5,278C 215.713,276.152 221.046,274.486 226.5,273C 227.618,271.926 228.618,270.76 229.5,269.5C 230.583,270.365 230.749,271.365 230,272.5C 225.092,274.723 221.259,277.389 218.5,280.5 Z"/></g>
<g><path style="opacity:1" fill="#e2dfdb" d="M 256.5,289.5 C 256.267,291.062 255.6,292.395 254.5,293.5C 244.904,296.65 235.237,299.65 225.5,302.5C 225.908,295.139 224.575,288.139 221.5,281.5C 227.861,280.567 234.194,279.4 240.5,278C 244.167,277.333 247.833,277.333 251.5,278C 255.907,280.532 257.574,284.365 256.5,289.5 Z"/></g>
<g><path style="opacity:0.008" fill="#56c6c8" d="M 361.5,279.5 C 362.525,279.897 362.692,280.563 362,281.5C 361.536,280.906 361.369,280.239 361.5,279.5 Z"/></g>
<g><path style="opacity:1" fill="#216aac" d="M 245.5,259.5 C 245.938,259.435 246.272,259.601 246.5,260C 245.167,261 243.833,262 242.5,263C 235.603,263.351 229.936,266.017 225.5,271C 221.661,271.459 217.828,271.959 214,272.5C 205.486,274.952 196.986,277.285 188.5,279.5C 179.207,281.049 169.874,282.382 160.5,283.5C 155.529,284.022 152.196,282.022 150.5,277.5C 151.391,278.11 152.391,278.443 153.5,278.5C 153.918,279.222 154.584,279.722 155.5,280C 169.654,279.311 183.654,277.311 197.5,274C 198.571,273.148 199.571,272.315 200.5,271.5C 207.881,271.423 214.881,270.089 221.5,267.5C 223.306,266.976 224.972,266.309 226.5,265.5C 227.167,265.167 227.833,264.833 228.5,264.5C 234.512,263.915 240.178,262.248 245.5,259.5 Z"/></g>
<g><path style="opacity:0.01" fill="#2a6eb2" d="M 126.5,282.5 C 126.657,283.873 126.49,285.207 126,286.5C 125.235,284.934 125.402,283.601 126.5,282.5 Z"/></g>
<g><path style="opacity:0.004" fill="#56c5c6" d="M 360.5,284.5 C 360.369,283.761 360.536,283.094 361,282.5C 361.692,283.437 361.525,284.103 360.5,284.5 Z"/></g>
<g><path style="opacity:1" fill="#ebca51" d="M 203.5,284.5 C 207.182,284.335 210.848,284.501 214.5,285C 216.125,285.853 216.458,286.853 215.5,288C 201.18,292.827 186.846,297.494 172.5,302C 169.833,304.667 167.167,307.333 164.5,310C 161.173,310.97 159.007,309.803 158,306.5C 157.366,303.445 157.532,300.445 158.5,297.5C 158.5,296.833 158.5,296.167 158.5,295.5C 159.5,295.167 160.167,294.5 160.5,293.5C 174.566,289.353 188.9,286.353 203.5,284.5 Z"/></g>
<g><path style="opacity:0.012" fill="#58c8c9" d="M 359.5,284.5 C 359.833,284.5 360.167,284.5 360.5,284.5C 360.737,285.791 360.404,286.791 359.5,287.5C 359.5,286.5 359.5,285.5 359.5,284.5 Z"/></g>
<g><path style="opacity:1" fill="#e7c241" d="M 218.5,280.5 C 219.609,280.557 220.609,280.89 221.5,281.5C 224.575,288.139 225.908,295.139 225.5,302.5C 225.5,303.167 225.167,303.5 224.5,303.5C 222.883,304.038 221.216,304.371 219.5,304.5C 214.752,304.275 210.085,304.775 205.5,306C 203.24,306.549 201.574,307.716 200.5,309.5C 198.833,309.5 197.167,309.5 195.5,309.5C 188.273,310.147 181.273,311.647 174.5,314C 161.047,317.207 155.213,312.041 157,298.5C 157.383,297.944 157.883,297.611 158.5,297.5C 157.532,300.445 157.366,303.445 158,306.5C 159.007,309.803 161.173,310.97 164.5,310C 167.167,307.333 169.833,304.667 172.5,302C 186.846,297.494 201.18,292.827 215.5,288C 216.458,286.853 216.125,285.853 214.5,285C 210.848,284.501 207.182,284.335 203.5,284.5C 208.5,283.167 213.5,281.833 218.5,280.5 Z"/></g>
<g><path style="opacity:0.01" fill="#296eb3" d="M 126.5,287.5 C 127.573,288.251 127.74,289.251 127,290.5C 126.517,289.552 126.351,288.552 126.5,287.5 Z"/></g>
<g><path style="opacity:0.008" fill="#56c6c8" d="M 358.5,287.5 C 358.833,287.5 359.167,287.5 359.5,287.5C 359.167,290.167 358.833,290.167 358.5,287.5 Z"/></g>
<g><path style="opacity:0.004" fill="#57c6c7" d="M 357.5,290.5 C 358.833,291.167 358.833,291.833 357.5,292.5C 357.5,291.833 357.5,291.167 357.5,290.5 Z"/></g>
<g><path style="opacity:0.012" fill="#286fb5" d="M 128.5,291.5 C 128.657,292.873 128.49,294.207 128,295.5C 127.235,293.934 127.402,292.601 128.5,291.5 Z"/></g>
<g><path style="opacity:0.012" fill="#59cacc" d="M 356.5,292.5 C 356.833,292.5 357.167,292.5 357.5,292.5C 357.737,293.791 357.404,294.791 356.5,295.5C 356.5,294.5 356.5,293.5 356.5,292.5 Z"/></g>
<g><path style="opacity:1" fill="#2187d4" d="M 251.5,250.5 C 251.328,251.492 251.662,252.158 252.5,252.5C 261.896,285.694 270.896,319.027 279.5,352.5C 278.778,352.918 278.278,353.584 278,354.5C 275.891,353.965 275.391,352.965 276.5,351.5C 275.01,350.174 273.676,348.674 272.5,347C 271.049,347.263 269.716,347.096 268.5,346.5C 268.833,345.833 269.167,345.167 269.5,344.5C 268.833,344.167 268.167,343.833 267.5,343.5C 268.376,342.749 269.376,342.249 270.5,342C 270.167,341.667 269.833,341.333 269.5,341C 273.331,336.432 272.497,332.598 267,329.5C 264.667,329.5 262.333,329.5 260,329.5C 259.28,331.112 259.446,332.612 260.5,334C 259.437,335.188 258.103,335.688 256.5,335.5C 258.584,329.326 256.417,325.992 250,325.5C 233.885,328.99 217.885,332.99 202,337.5C 197.668,334.446 192.835,333.113 187.5,333.5C 186.991,332.659 187.657,332.159 189.5,332C 185.609,331.94 182.275,330.607 179.5,328C 180.667,325.167 179.833,324.333 177,325.5C 172.586,324.697 168.086,324.197 163.5,324C 161.944,323.28 160.944,322.113 160.5,320.5C 167.117,321.589 173.783,321.756 180.5,321C 194.802,317.841 209.135,314.841 223.5,312C 225.355,310.145 227.188,308.312 229,306.5C 237.965,304.376 246.799,301.876 255.5,299C 258.329,294.596 259.163,289.762 258,284.5C 257.802,286.382 257.302,288.048 256.5,289.5C 257.574,284.365 255.907,280.532 251.5,278C 247.833,277.333 244.167,277.333 240.5,278C 234.194,279.4 227.861,280.567 221.5,281.5C 220.609,280.89 219.609,280.557 218.5,280.5C 221.259,277.389 225.092,274.723 230,272.5C 230.749,271.365 230.583,270.365 229.5,269.5C 228.618,270.76 227.618,271.926 226.5,273C 221.046,274.486 215.713,276.152 210.5,278C 203.208,279.116 195.874,279.616 188.5,279.5C 196.986,277.285 205.486,274.952 214,272.5C 217.828,271.959 221.661,271.459 225.5,271C 229.936,266.017 235.603,263.351 242.5,263C 243.833,262 245.167,261 246.5,260C 246.272,259.601 245.938,259.435 245.5,259.5C 246.6,258.395 247.267,257.062 247.5,255.5C 248.451,254.081 248.784,252.415 248.5,250.5C 249.5,250.5 250.5,250.5 251.5,250.5 Z"/></g>
<g><path style="opacity:0.008" fill="#58c7c9" d="M 355.5,295.5 C 355.833,295.5 356.167,295.5 356.5,295.5C 356.167,298.167 355.833,298.167 355.5,295.5 Z"/></g>
<g><path style="opacity:0.009" fill="#296eb3" d="M 129.5,296.5 C 129.657,297.873 129.49,299.207 129,300.5C 128.235,298.934 128.402,297.601 129.5,296.5 Z"/></g>
<g><path style="opacity:0.992" fill="#2772ba" d="M 113.5,216.5 C 117.091,229.597 120.257,242.93 123,256.5C 123.284,254.114 124.284,253.448 126,254.5C 129.232,266.636 131.899,278.969 134,291.5C 136.933,298.495 138.266,305.829 138,313.5C 139.189,315.233 140.356,316.9 141.5,318.5C 146.21,338.717 150.544,359.05 154.5,379.5C 155.299,382.43 155.632,385.43 155.5,388.5C 155.97,391.745 157.303,394.579 159.5,397C 161.455,397.953 163.122,399.287 164.5,401C 167.319,401.983 169.986,402.483 172.5,402.5C 198.127,394.273 223.627,385.606 249,376.5C 249.5,376.667 250,376.833 250.5,377C 248.998,377.583 247.665,378.416 246.5,379.5C 247,379.833 247.5,380.167 248,380.5C 257.761,376.51 267.594,372.677 277.5,369C 279.066,368.235 280.399,368.402 281.5,369.5C 280.89,370.391 280.557,371.391 280.5,372.5C 279.508,372.328 278.842,372.662 278.5,373.5C 277.209,373.263 276.209,373.596 275.5,374.5C 274.209,374.263 273.209,374.596 272.5,375.5C 271.209,375.263 270.209,375.596 269.5,376.5C 268.209,376.263 267.209,376.596 266.5,377.5C 265.209,377.263 264.209,377.596 263.5,378.5C 262.209,378.263 261.209,378.596 260.5,379.5C 259.209,379.263 258.209,379.596 257.5,380.5C 256.209,380.263 255.209,380.596 254.5,381.5C 253.209,381.263 252.209,381.596 251.5,382.5C 250.209,382.263 249.209,382.596 248.5,383.5C 247.209,383.263 246.209,383.596 245.5,384.5C 244.209,384.263 243.209,384.596 242.5,385.5C 241.209,385.263 240.209,385.596 239.5,386.5C 238.209,386.263 237.209,386.596 236.5,387.5C 235.209,387.263 234.209,387.596 233.5,388.5C 232.209,388.263 231.209,388.596 230.5,389.5C 229.209,389.263 228.209,389.596 227.5,390.5C 226.209,390.263 225.209,390.596 224.5,391.5C 223.209,391.263 222.209,391.596 221.5,392.5C 220.209,392.263 219.209,392.596 218.5,393.5C 217.209,393.263 216.209,393.596 215.5,394.5C 214.209,394.263 213.209,394.596 212.5,395.5C 211.209,395.263 210.209,395.596 209.5,396.5C 208.209,396.263 207.209,396.596 206.5,397.5C 205.209,397.263 204.209,397.596 203.5,398.5C 202.209,398.263 201.209,398.596 200.5,399.5C 199.209,399.263 198.209,399.596 197.5,400.5C 196.209,400.263 195.209,400.596 194.5,401.5C 193.209,401.263 192.209,401.596 191.5,402.5C 190.209,402.263 189.209,402.596 188.5,403.5C 185.848,403.41 183.515,404.076 181.5,405.5C 180.209,405.263 179.209,405.596 178.5,406.5C 176.585,406.216 174.919,406.549 173.5,407.5C 170.5,407.5 167.5,407.5 164.5,407.5C 162.544,406.508 160.544,405.508 158.5,404.5C 156.471,402.142 154.471,399.808 152.5,397.5C 152.672,396.508 152.338,395.842 151.5,395.5C 151.737,394.209 151.404,393.209 150.5,392.5C 150.768,390.901 150.434,389.568 149.5,388.5C 149.768,386.901 149.434,385.568 148.5,384.5C 148.58,381.219 147.913,378.219 146.5,375.5C 146.784,373.585 146.451,371.919 145.5,370.5C 145.768,368.901 145.434,367.568 144.5,366.5C 144.784,364.585 144.451,362.919 143.5,361.5C 143.58,358.219 142.913,355.219 141.5,352.5C 141.784,350.585 141.451,348.919 140.5,347.5C 140.324,344.273 139.657,341.273 138.5,338.5C 138.246,333.556 137.246,328.889 135.5,324.5C 135.58,321.219 134.913,318.219 133.5,315.5C 133.784,313.585 133.451,311.919 132.5,310.5C 132.784,308.585 132.451,306.919 131.5,305.5C 131.768,303.901 131.434,302.568 130.5,301.5C 130.784,299.585 130.451,297.919 129.5,296.5C 129.784,294.585 129.451,292.919 128.5,291.5C 128.58,288.219 127.913,285.219 126.5,282.5C 126.784,280.585 126.451,278.919 125.5,277.5C 125.58,274.219 124.913,271.219 123.5,268.5C 123.784,266.585 123.451,264.919 122.5,263.5C 122.58,260.219 121.913,257.219 120.5,254.5C 120.784,252.585 120.451,250.919 119.5,249.5C 119.784,247.585 119.451,245.919 118.5,244.5C 118.768,242.901 118.434,241.568 117.5,240.5C 117.784,238.585 117.451,236.919 116.5,235.5C 116.246,230.556 115.246,225.889 113.5,221.5C 113.5,219.833 113.5,218.167 113.5,216.5 Z"/></g>
<g><path style="opacity:0.008" fill="#56c5c7" d="M 354.5,298.5 C 355.833,299.167 355.833,299.833 354.5,300.5C 354.5,299.833 354.5,299.167 354.5,298.5 Z"/></g>
<g><path style="opacity:1" fill="#2466b6" d="M 254.5,293.5 C 255.573,294.251 255.74,295.251 255,296.5C 245.386,301.21 235.219,303.877 224.5,304.5C 224.5,304.167 224.5,303.833 224.5,303.5C 225.167,303.5 225.5,303.167 225.5,302.5C 235.237,299.65 244.904,296.65 254.5,293.5 Z"/></g>
<g><path style="opacity:0.012" fill="#5bccce" d="M 353.5,300.5 C 353.833,300.5 354.167,300.5 354.5,300.5C 354.737,301.791 354.404,302.791 353.5,303.5C 353.5,302.5 353.5,301.5 353.5,300.5 Z"/></g>
<g><path style="opacity:0.01" fill="#2a6eb2" d="M 130.5,301.5 C 130.5,302.833 130.5,304.167 130.5,305.5C 129.167,304.167 129.167,302.833 130.5,301.5 Z"/></g>
<g><path style="opacity:0.012" fill="#59c9ca" d="M 352.5,303.5 C 352.833,303.5 353.167,303.5 353.5,303.5C 353.167,306.167 352.833,306.167 352.5,303.5 Z"/></g>
<g><path style="opacity:0.01" fill="#286eb3" d="M 130.5,305.5 C 130.833,305.5 131.167,305.5 131.5,305.5C 131.167,310.833 130.833,310.833 130.5,305.5 Z"/></g>
<g><path style="opacity:1" fill="#ae9046" d="M 219.5,304.5 C 213.313,306.298 206.98,307.965 200.5,309.5C 201.574,307.716 203.24,306.549 205.5,306C 210.085,304.775 214.752,304.275 219.5,304.5 Z"/></g>
<g><path style="opacity:0.008" fill="#58c6c7" d="M 351.5,306.5 C 352.525,306.897 352.692,307.563 352,308.5C 351.536,307.906 351.369,307.239 351.5,306.5 Z"/></g>
<g><path style="opacity:1" fill="#244c7b" d="M 224.5,303.5 C 224.5,303.833 224.5,304.167 224.5,304.5C 222.91,306.234 220.91,307.4 218.5,308C 206.408,309.558 194.742,312.558 183.5,317C 175.988,317.822 168.655,317.655 161.5,316.5C 173.313,315.938 184.646,313.605 195.5,309.5C 197.167,309.5 198.833,309.5 200.5,309.5C 206.98,307.965 213.313,306.298 219.5,304.5C 221.216,304.371 222.883,304.038 224.5,303.5 Z"/></g>
<g><path style="opacity:0.004" fill="#56c4c5" d="M 350.5,311.5 C 350.369,310.761 350.536,310.094 351,309.5C 351.692,310.437 351.525,311.103 350.5,311.5 Z"/></g>
<g><path style="opacity:0.012" fill="#296eb2" d="M 132.5,310.5 C 132.657,311.873 132.49,313.207 132,314.5C 131.235,312.934 131.402,311.601 132.5,310.5 Z"/></g>
<g><path style="opacity:1" fill="#2078c3" d="M 160.5,320.5 C 158.178,319.198 156.845,317.198 156.5,314.5C 158.05,315.441 159.716,316.107 161.5,316.5C 168.655,317.655 175.988,317.822 183.5,317C 194.742,312.558 206.408,309.558 218.5,308C 220.91,307.4 222.91,306.234 224.5,304.5C 235.219,303.877 245.386,301.21 255,296.5C 255.74,295.251 255.573,294.251 254.5,293.5C 255.6,292.395 256.267,291.062 256.5,289.5C 257.302,288.048 257.802,286.382 258,284.5C 259.163,289.762 258.329,294.596 255.5,299C 246.799,301.876 237.965,304.376 229,306.5C 227.188,308.312 225.355,310.145 223.5,312C 209.135,314.841 194.802,317.841 180.5,321C 173.783,321.756 167.117,321.589 160.5,320.5 Z"/></g>
<g><path style="opacity:0.008" fill="#59c7c9" d="M 349.5,311.5 C 349.833,311.5 350.167,311.5 350.5,311.5C 350.167,314.167 349.833,314.167 349.5,311.5 Z"/></g>
<g><path style="opacity:1" fill="#b5974c" d="M 158.5,295.5 C 158.5,296.167 158.5,296.833 158.5,297.5C 157.883,297.611 157.383,297.944 157,298.5C 155.213,312.041 161.047,317.207 174.5,314C 181.273,311.647 188.273,310.147 195.5,309.5C 184.646,313.605 173.313,315.938 161.5,316.5C 159.716,316.107 158.05,315.441 156.5,314.5C 156.167,313.833 155.833,313.167 155.5,312.5C 154.91,311.234 154.41,309.901 154,308.5C 152.245,302.871 153.745,298.537 158.5,295.5 Z"/></g>
<g><path style="opacity:0.008" fill="#57c4c6" d="M 348.5,314.5 C 349.833,315.167 349.833,315.833 348.5,316.5C 348.5,315.833 348.5,315.167 348.5,314.5 Z"/></g>
<g><path style="opacity:0.009" fill="#296eb2" d="M 133.5,315.5 C 133.657,316.873 133.49,318.207 133,319.5C 132.235,317.934 132.402,316.601 133.5,315.5 Z"/></g>
<g><path style="opacity:0.012" fill="#5cccce" d="M 347.5,316.5 C 347.833,316.5 348.167,316.5 348.5,316.5C 348.737,317.791 348.404,318.791 347.5,319.5C 347.5,318.5 347.5,317.5 347.5,316.5 Z"/></g>
<g><path style="opacity:0.009" fill="#2a6db1" d="M 134.5,324.5 C 133.402,323.399 133.235,322.066 134,320.5C 134.49,321.793 134.657,323.127 134.5,324.5 Z"/></g>
<g><path style="opacity:0.008" fill="#59c6c8" d="M 346.5,319.5 C 346.833,319.5 347.167,319.5 347.5,319.5C 347.167,322.167 346.833,322.167 346.5,319.5 Z"/></g>
<g><path style="opacity:0.004" fill="#58c5c6" d="M 345.5,324.5 C 345.369,323.761 345.536,323.094 346,322.5C 346.692,323.437 346.525,324.103 345.5,324.5 Z"/></g>
<g><path style="opacity:0.008" fill="#296eb3" d="M 134.5,324.5 C 134.833,324.5 135.167,324.5 135.5,324.5C 135.167,329.833 134.833,329.833 134.5,324.5 Z"/></g>
<g><path style="opacity:0.012" fill="#5ac7c8" d="M 344.5,324.5 C 344.833,324.5 345.167,324.5 345.5,324.5C 345.167,327.167 344.833,327.167 344.5,324.5 Z"/></g>
<g><path style="opacity:1" fill="#e6e2de" d="M 256.5,335.5 C 255.833,336.167 255.167,336.833 254.5,337.5C 238.337,342.053 222.17,346.719 206,351.5C 204.047,354.292 201.88,356.958 199.5,359.5C 197.925,360.456 196.258,361.123 194.5,361.5C 190.424,361.879 186.757,360.879 183.5,358.5C 179.733,353.87 177.733,348.536 177.5,342.5C 179.614,338.049 182.947,335.049 187.5,333.5C 192.835,333.113 197.668,334.446 202,337.5C 217.885,332.99 233.885,328.99 250,325.5C 256.417,325.992 258.584,329.326 256.5,335.5 Z"/></g>
<g><path style="opacity:0.004" fill="#58c4c5" d="M 343.5,327.5 C 344.833,328.167 344.833,328.833 343.5,329.5C 343.5,328.833 343.5,328.167 343.5,327.5 Z"/></g>
<g><path style="opacity:0.009" fill="#296db2" d="M 135.5,329.5 C 136.598,330.601 136.765,331.934 136,333.5C 135.51,332.207 135.343,330.873 135.5,329.5 Z"/></g>
<g><path style="opacity:0.008" fill="#5bc8c9" d="M 342.5,329.5 C 342.833,329.5 343.167,329.5 343.5,329.5C 343.167,332.167 342.833,332.167 342.5,329.5 Z"/></g>
<g><path style="opacity:0.004" fill="#59c3c4" d="M 341.5,334.5 C 341.369,333.761 341.536,333.094 342,332.5C 342.692,333.437 342.525,334.103 341.5,334.5 Z"/></g>
<g><path style="opacity:0.009" fill="#296db2" d="M 136.5,334.5 C 137.573,335.251 137.74,336.251 137,337.5C 136.517,336.552 136.351,335.552 136.5,334.5 Z"/></g>
<g><path style="opacity:0.008" fill="#5bc6c6" d="M 340.5,334.5 C 340.833,334.5 341.167,334.5 341.5,334.5C 341.672,335.492 341.338,336.158 340.5,336.5C 340.5,335.833 340.5,335.167 340.5,334.5 Z"/></g>
<g><path style="opacity:0.012" fill="#5ec9ca" d="M 339.5,336.5 C 339.833,336.5 340.167,336.5 340.5,336.5C 340.167,339.167 339.833,339.167 339.5,336.5 Z"/></g>
<g><path style="opacity:0.009" fill="#296eb4" d="M 138.5,338.5 C 138.657,339.873 138.49,341.207 138,342.5C 137.235,340.934 137.402,339.601 138.5,338.5 Z"/></g>
<g><path style="opacity:0.012" fill="#5cc6c6" d="M 338.5,339.5 C 339.833,340.167 339.833,340.167 338.5,339.5 Z"/></g>
<g><path style="opacity:0.012" fill="#5ec7c7" d="M 337.5,341.5 C 338.833,342.167 338.833,342.167 337.5,341.5 Z"/></g>
<g><path style="opacity:1" fill="#245ba9" d="M 254.5,337.5 C 255.097,337.735 255.43,338.235 255.5,339C 254.556,340.477 253.223,341.477 251.5,342C 237.135,345.873 222.801,349.873 208.5,354C 206.919,354.707 205.419,355.54 204,356.5C 200.912,364.984 195.079,367.484 186.5,364C 188.382,363.802 190.048,363.302 191.5,362.5C 192.791,362.737 193.791,362.404 194.5,361.5C 196.258,361.123 197.925,360.456 199.5,359.5C 201.88,356.958 204.047,354.292 206,351.5C 222.17,346.719 238.337,342.053 254.5,337.5 Z"/></g>
<g><path style="opacity:0.008" fill="#5dc5c4" d="M 336.5,343.5 C 337.833,344.167 337.833,344.167 336.5,343.5 Z"/></g>
<g><path style="opacity:0.004" fill="#5dc5c5" d="M 335.5,344.5 C 335.833,344.5 336.167,344.5 336.5,344.5C 336.672,345.492 336.338,346.158 335.5,346.5C 335.5,345.833 335.5,345.167 335.5,344.5 Z"/></g>
<g><path style="opacity:0.012" fill="#5ec5c5" d="M 334.5,346.5 C 334.833,346.5 335.167,346.5 335.5,346.5C 335.315,347.17 334.981,347.17 334.5,346.5 Z"/></g>
<g><path style="opacity:0.016" fill="#61cbca" d="M 333.5,347.5 C 333.833,347.5 334.167,347.5 334.5,347.5C 334.315,348.17 333.981,348.17 333.5,347.5 Z"/></g>
<g><path style="opacity:0.01" fill="#296fb4" d="M 140.5,347.5 C 140.657,348.873 140.49,350.207 140,351.5C 139.235,349.934 139.402,348.601 140.5,347.5 Z"/></g>
<g><path style="opacity:1" fill="#288ed8" d="M 155.5,312.5 C 155.833,313.167 156.167,313.833 156.5,314.5C 156.845,317.198 158.178,319.198 160.5,320.5C 160.944,322.113 161.944,323.28 163.5,324C 168.086,324.197 172.586,324.697 177,325.5C 179.833,324.333 180.667,325.167 179.5,328C 182.275,330.607 185.609,331.94 189.5,332C 187.657,332.159 186.991,332.659 187.5,333.5C 182.947,335.049 179.614,338.049 177.5,342.5C 175.25,349.766 176.916,356.099 182.5,361.5C 181.876,361.917 181.543,362.584 181.5,363.5C 183.648,368.805 186.981,372.305 191.5,374C 189.598,374.199 188.098,375.033 187,376.5C 185.951,374.893 184.451,374.227 182.5,374.5C 182.719,375.675 182.386,376.675 181.5,377.5C 181.167,376.833 180.833,376.167 180.5,375.5C 178.569,377.804 176.236,379.638 173.5,381C 174.833,382 174.833,383 173.5,384C 174.167,384.333 174.833,384.667 175.5,385C 173.5,385.333 171.5,385.667 169.5,386C 170.167,386.333 170.833,386.667 171.5,387C 169.114,387.284 168.448,388.284 169.5,390C 167.855,391.8 166.522,393.8 165.5,396C 164.5,396.667 163.5,396.667 162.5,396C 159.933,393.604 157.6,391.104 155.5,388.5C 155.632,385.43 155.299,382.43 154.5,379.5C 155.139,378.903 155.472,378.07 155.5,377C 152.456,358.471 150.123,340.138 148.5,322C 148.625,320.373 149.125,318.873 150,317.5C 152.655,316.631 154.488,314.964 155.5,312.5 Z"/></g>
<g><path style="opacity:0.016" fill="#60c7c6" d="M 329.5,352.5 C 330.833,353.167 330.833,353.167 329.5,352.5 Z"/></g>
<g><path style="opacity:0.009" fill="#296eb3" d="M 141.5,352.5 C 141.657,353.873 141.49,355.207 141,356.5C 140.235,354.934 140.402,353.601 141.5,352.5 Z"/></g>
<g><path style="opacity:0.012" fill="#60c7c6" d="M 328.5,353.5 C 328.833,353.5 329.167,353.5 329.5,353.5C 329.315,354.17 328.981,354.17 328.5,353.5 Z"/></g>
<g><path style="opacity:0.012" fill="#5fc6c5" d="M 327.5,354.5 C 327.833,354.5 328.167,354.5 328.5,354.5C 328.315,355.17 327.981,355.17 327.5,354.5 Z"/></g>
<g><path style="opacity:0.008" fill="#5ec4c3" d="M 327.5,355.5 C 326.833,356.167 326.833,356.167 327.5,355.5 Z"/></g>
<g><path style="opacity:0.012" fill="#61cbca" d="M 324.5,356.5 C 325.833,357.167 325.833,357.167 324.5,356.5 Z"/></g>
<g><path style="opacity:0.008" fill="#60c6c5" d="M 324.5,357.5 C 323.833,358.167 323.833,358.167 324.5,357.5 Z"/></g>
<g><path style="opacity:0.01" fill="#2a6db2" d="M 142.5,361.5 C 141.402,360.399 141.235,359.066 142,357.5C 142.49,358.793 142.657,360.127 142.5,361.5 Z"/></g>
<g><path style="opacity:0.012" fill="#60c7c6" d="M 321.5,358.5 C 322.833,359.167 322.833,359.167 321.5,358.5 Z"/></g>
<g><path style="opacity:1" fill="#b1becf" d="M 177.5,342.5 C 177.733,348.536 179.733,353.87 183.5,358.5C 186.757,360.879 190.424,361.879 194.5,361.5C 193.791,362.404 192.791,362.737 191.5,362.5C 188.43,362.632 185.43,362.299 182.5,361.5C 176.916,356.099 175.25,349.766 177.5,342.5 Z"/></g>
<g><path style="opacity:0.012" fill="#5fc6c5" d="M 319.5,359.5 C 320.833,360.167 320.833,360.167 319.5,359.5 Z"/></g>
<g><path style="opacity:0.012" fill="#5fc6c4" d="M 317.5,360.5 C 318.833,361.167 318.833,361.167 317.5,360.5 Z"/></g>
<g><path style="opacity:0.012" fill="#60c8c8" d="M 314.5,362.5 C 314.5,362.167 314.5,361.833 314.5,361.5C 317.167,361.833 317.167,362.167 314.5,362.5 Z"/></g>
<g><path style="opacity:0.009" fill="#296fb4" d="M 142.5,361.5 C 142.833,361.5 143.167,361.5 143.5,361.5C 143.167,366.833 142.833,366.833 142.5,361.5 Z"/></g>
<g><path style="opacity:0.01" fill="#5fc4c3" d="M 312.5,363.5 C 312.5,363.167 312.5,362.833 312.5,362.5C 313.167,362.5 313.833,362.5 314.5,362.5C 314.158,363.338 313.492,363.672 312.5,363.5 Z"/></g>
<g><path style="opacity:0.008" fill="#60c2c2" d="M 312.5,363.5 C 312.103,364.525 311.437,364.692 310.5,364C 311.094,363.536 311.761,363.369 312.5,363.5 Z"/></g>
<g><path style="opacity:0.008" fill="#60c2c1" d="M 307.5,364.5 C 308.239,364.369 308.906,364.536 309.5,365C 308.563,365.692 307.897,365.525 307.5,364.5 Z"/></g>
<g><path style="opacity:0.008" fill="#5fc1c1" d="M 304.5,366.5 C 304.897,365.475 305.563,365.308 306.5,366C 305.906,366.464 305.239,366.631 304.5,366.5 Z"/></g>
<g><path style="opacity:0.01" fill="#5fc2c1" d="M 300.5,367.5 C 300.5,367.167 300.5,366.833 300.5,366.5C 304.5,366.833 304.5,367.167 300.5,367.5 Z"/></g>
<g><path style="opacity:0.01" fill="#296eb2" d="M 144.5,366.5 C 144.5,367.833 144.5,369.167 144.5,370.5C 143.167,369.167 143.167,367.833 144.5,366.5 Z"/></g>
<g><path style="opacity:0.012" fill="#5fc3c2" d="M 297.5,368.5 C 297.5,368.167 297.5,367.833 297.5,367.5C 298.5,367.5 299.5,367.5 300.5,367.5C 299.791,368.404 298.791,368.737 297.5,368.5 Z"/></g>
<g><path style="opacity:0.012" fill="#60c2c1" d="M 294.5,369.5 C 294.5,369.167 294.5,368.833 294.5,368.5C 295.5,368.5 296.5,368.5 297.5,368.5C 296.791,369.404 295.791,369.737 294.5,369.5 Z"/></g>
<g><path style="opacity:0.012" fill="#61c1c0" d="M 291.5,369.5 C 292.5,369.5 293.5,369.5 294.5,369.5C 293.5,370.833 292.5,370.833 291.5,369.5 Z"/></g>
<g><path style="opacity:1" fill="#1e84d3" d="M 279.5,352.5 C 280.492,356.404 281.492,360.404 282.5,364.5C 282.784,366.415 282.451,368.081 281.5,369.5C 280.399,368.402 279.066,368.235 277.5,369C 267.594,372.677 257.761,376.51 248,380.5C 247.5,380.167 247,379.833 246.5,379.5C 247.665,378.416 248.998,377.583 250.5,377C 250,376.833 249.5,376.667 249,376.5C 223.627,385.606 198.127,394.273 172.5,402.5C 169.986,402.483 167.319,401.983 164.5,401C 163.122,399.287 161.455,397.953 159.5,397C 157.303,394.579 155.97,391.745 155.5,388.5C 157.6,391.104 159.933,393.604 162.5,396C 163.5,396.667 164.5,396.667 165.5,396C 166.522,393.8 167.855,391.8 169.5,390C 168.448,388.284 169.114,387.284 171.5,387C 170.833,386.667 170.167,386.333 169.5,386C 171.5,385.667 173.5,385.333 175.5,385C 174.833,384.667 174.167,384.333 173.5,384C 174.833,383 174.833,382 173.5,381C 176.236,379.638 178.569,377.804 180.5,375.5C 180.833,376.167 181.167,376.833 181.5,377.5C 182.386,376.675 182.719,375.675 182.5,374.5C 184.451,374.227 185.951,374.893 187,376.5C 188.098,375.033 189.598,374.199 191.5,374C 186.981,372.305 183.648,368.805 181.5,363.5C 181.543,362.584 181.876,361.917 182.5,361.5C 185.43,362.299 188.43,362.632 191.5,362.5C 190.048,363.302 188.382,363.802 186.5,364C 195.079,367.484 200.912,364.984 204,356.5C 205.419,355.54 206.919,354.707 208.5,354C 222.801,349.873 237.135,345.873 251.5,342C 253.223,341.477 254.556,340.477 255.5,339C 255.43,338.235 255.097,337.735 254.5,337.5C 255.167,336.833 255.833,336.167 256.5,335.5C 258.103,335.688 259.437,335.188 260.5,334C 259.446,332.612 259.28,331.112 260,329.5C 262.333,329.5 264.667,329.5 267,329.5C 272.497,332.598 273.331,336.432 269.5,341C 269.833,341.333 270.167,341.667 270.5,342C 269.376,342.249 268.376,342.749 267.5,343.5C 268.167,343.833 268.833,344.167 269.5,344.5C 269.167,345.167 268.833,345.833 268.5,346.5C 269.716,347.096 271.049,347.263 272.5,347C 273.676,348.674 275.01,350.174 276.5,351.5C 275.391,352.965 275.891,353.965 278,354.5C 278.278,353.584 278.778,352.918 279.5,352.5 Z"/></g>
<g><path style="opacity:0.008" fill="#60c1c0" d="M 288.5,371.5 C 288.897,370.475 289.563,370.308 290.5,371C 289.906,371.464 289.239,371.631 288.5,371.5 Z"/></g>
<g><path style="opacity:0.01" fill="#276db4" d="M 144.5,370.5 C 144.833,370.5 145.167,370.5 145.5,370.5C 145.167,375.833 144.833,375.833 144.5,370.5 Z"/></g>
<g><path style="opacity:0.008" fill="#60c1c0" d="M 285.5,372.5 C 285.897,371.475 286.563,371.308 287.5,372C 286.906,372.464 286.239,372.631 285.5,372.5 Z"/></g>
<g><path style="opacity:0.012" fill="#5cbdc0" d="M 281.5,373.5 C 281.5,373.167 281.5,372.833 281.5,372.5C 285.5,372.833 285.5,373.167 281.5,373.5 Z"/></g>
<g><path style="opacity:0.012" fill="#4082af" d="M 278.5,374.5 C 278.5,374.167 278.5,373.833 278.5,373.5C 279.5,373.5 280.5,373.5 281.5,373.5C 280.791,374.404 279.791,374.737 278.5,374.5 Z"/></g>
<g><path style="opacity:0.008" fill="#2b66a6" d="M 275.5,375.5 C 275.5,375.167 275.5,374.833 275.5,374.5C 276.5,374.5 277.5,374.5 278.5,374.5C 277.791,375.404 276.791,375.737 275.5,375.5 Z"/></g>
<g><path style="opacity:0.008" fill="#2c66a6" d="M 272.5,376.5 C 272.5,376.167 272.5,375.833 272.5,375.5C 273.5,375.5 274.5,375.5 275.5,375.5C 274.791,376.404 273.791,376.737 272.5,376.5 Z"/></g>
<g><path style="opacity:0.009" fill="#286eb4" d="M 146.5,375.5 C 146.657,376.873 146.49,378.207 146,379.5C 145.235,377.934 145.402,376.601 146.5,375.5 Z"/></g>
<g><path style="opacity:0.008" fill="#2c66a6" d="M 269.5,377.5 C 269.5,377.167 269.5,376.833 269.5,376.5C 270.5,376.5 271.5,376.5 272.5,376.5C 271.791,377.404 270.791,377.737 269.5,377.5 Z"/></g>
<g><path style="opacity:0.008" fill="#2c65a4" d="M 266.5,378.5 C 266.5,378.167 266.5,377.833 266.5,377.5C 267.5,377.5 268.5,377.5 269.5,377.5C 268.791,378.404 267.791,378.737 266.5,378.5 Z"/></g>
<g><path style="opacity:0.008" fill="#2c66a5" d="M 263.5,379.5 C 263.5,379.167 263.5,378.833 263.5,378.5C 264.5,378.5 265.5,378.5 266.5,378.5C 265.791,379.404 264.791,379.737 263.5,379.5 Z"/></g>
<g><path style="opacity:0.008" fill="#2c65a5" d="M 260.5,380.5 C 260.5,380.167 260.5,379.833 260.5,379.5C 261.5,379.5 262.5,379.5 263.5,379.5C 262.791,380.404 261.791,380.737 260.5,380.5 Z"/></g>
<g><path style="opacity:0.009" fill="#286db2" d="M 147.5,384.5 C 146.402,383.399 146.235,382.066 147,380.5C 147.49,381.793 147.657,383.127 147.5,384.5 Z"/></g>
<g><path style="opacity:0.008" fill="#2c65a6" d="M 257.5,381.5 C 257.5,381.167 257.5,380.833 257.5,380.5C 258.5,380.5 259.5,380.5 260.5,380.5C 259.791,381.404 258.791,381.737 257.5,381.5 Z"/></g>
<g><path style="opacity:0.008" fill="#2b65a6" d="M 254.5,382.5 C 254.5,382.167 254.5,381.833 254.5,381.5C 255.5,381.5 256.5,381.5 257.5,381.5C 256.791,382.404 255.791,382.737 254.5,382.5 Z"/></g>
<g><path style="opacity:0.008" fill="#2c65a6" d="M 251.5,383.5 C 251.5,383.167 251.5,382.833 251.5,382.5C 252.5,382.5 253.5,382.5 254.5,382.5C 253.791,383.404 252.791,383.737 251.5,383.5 Z"/></g>
<g><path style="opacity:0.008" fill="#2b65a6" d="M 248.5,384.5 C 248.5,384.167 248.5,383.833 248.5,383.5C 249.5,383.5 250.5,383.5 251.5,383.5C 250.791,384.404 249.791,384.737 248.5,384.5 Z"/></g>
<g><path style="opacity:0.008" fill="#2a66a7" d="M 245.5,385.5 C 245.5,385.167 245.5,384.833 245.5,384.5C 246.5,384.5 247.5,384.5 248.5,384.5C 247.791,385.404 246.791,385.737 245.5,385.5 Z"/></g>
<g><path style="opacity:0.008" fill="#286eb3" d="M 147.5,384.5 C 147.833,384.5 148.167,384.5 148.5,384.5C 148.5,385.833 148.5,387.167 148.5,388.5C 147.566,387.432 147.232,386.099 147.5,384.5 Z"/></g>
<g><path style="opacity:0.008" fill="#2b65a6" d="M 242.5,386.5 C 242.5,386.167 242.5,385.833 242.5,385.5C 243.5,385.5 244.5,385.5 245.5,385.5C 244.791,386.404 243.791,386.737 242.5,386.5 Z"/></g>
<g><path style="opacity:0.012" fill="#2b65a7" d="M 239.5,387.5 C 239.5,387.167 239.5,386.833 239.5,386.5C 240.5,386.5 241.5,386.5 242.5,386.5C 241.791,387.404 240.791,387.737 239.5,387.5 Z"/></g>
<g><path style="opacity:0.008" fill="#2b65a7" d="M 236.5,388.5 C 236.5,388.167 236.5,387.833 236.5,387.5C 237.5,387.5 238.5,387.5 239.5,387.5C 238.791,388.404 237.791,388.737 236.5,388.5 Z"/></g>
<g><path style="opacity:0.008" fill="#2a64a6" d="M 233.5,389.5 C 233.5,389.167 233.5,388.833 233.5,388.5C 234.5,388.5 235.5,388.5 236.5,388.5C 235.791,389.404 234.791,389.737 233.5,389.5 Z"/></g>
<g><path style="opacity:0.009" fill="#276db5" d="M 148.5,388.5 C 148.833,388.5 149.167,388.5 149.5,388.5C 149.5,389.833 149.5,391.167 149.5,392.5C 148.566,391.432 148.232,390.099 148.5,388.5 Z"/></g>
<g><path style="opacity:0.008" fill="#2b65a6" d="M 230.5,390.5 C 230.5,390.167 230.5,389.833 230.5,389.5C 231.5,389.5 232.5,389.5 233.5,389.5C 232.791,390.404 231.791,390.737 230.5,390.5 Z"/></g>
<g><path style="opacity:0.012" fill="#2c65a5" d="M 227.5,391.5 C 227.5,391.167 227.5,390.833 227.5,390.5C 228.5,390.5 229.5,390.5 230.5,390.5C 229.791,391.404 228.791,391.737 227.5,391.5 Z"/></g>
<g><path style="opacity:0.008" fill="#2b65a5" d="M 224.5,392.5 C 224.5,392.167 224.5,391.833 224.5,391.5C 225.5,391.5 226.5,391.5 227.5,391.5C 226.791,392.404 225.791,392.737 224.5,392.5 Z"/></g>
<g><path style="opacity:0.008" fill="#2b65a6" d="M 221.5,393.5 C 221.5,393.167 221.5,392.833 221.5,392.5C 222.5,392.5 223.5,392.5 224.5,392.5C 223.791,393.404 222.791,393.737 221.5,393.5 Z"/></g>
<g><path style="opacity:0.008" fill="#266db5" d="M 149.5,392.5 C 149.833,392.5 150.167,392.5 150.5,392.5C 150.5,393.5 150.5,394.5 150.5,395.5C 149.596,394.791 149.263,393.791 149.5,392.5 Z"/></g>
<g><path style="opacity:0.008" fill="#2b65a6" d="M 218.5,394.5 C 218.5,394.167 218.5,393.833 218.5,393.5C 219.5,393.5 220.5,393.5 221.5,393.5C 220.791,394.404 219.791,394.737 218.5,394.5 Z"/></g>
<g><path style="opacity:0.012" fill="#2b65a6" d="M 215.5,395.5 C 215.5,395.167 215.5,394.833 215.5,394.5C 216.5,394.5 217.5,394.5 218.5,394.5C 217.791,395.404 216.791,395.737 215.5,395.5 Z"/></g>
<g><path style="opacity:0.012" fill="#2b64a4" d="M 212.5,396.5 C 212.5,396.167 212.5,395.833 212.5,395.5C 213.5,395.5 214.5,395.5 215.5,395.5C 214.791,396.404 213.791,396.737 212.5,396.5 Z"/></g>
<g><path style="opacity:0.008" fill="#276bb0" d="M 150.5,395.5 C 150.833,395.5 151.167,395.5 151.5,395.5C 151.5,396.167 151.5,396.833 151.5,397.5C 150.662,397.158 150.328,396.492 150.5,395.5 Z"/></g>
<g><path style="opacity:0.008" fill="#2c65a5" d="M 209.5,397.5 C 209.5,397.167 209.5,396.833 209.5,396.5C 210.5,396.5 211.5,396.5 212.5,396.5C 211.791,397.404 210.791,397.737 209.5,397.5 Z"/></g>
<g><path style="opacity:0.008" fill="#2b64a5" d="M 206.5,397.5 C 207.5,397.5 208.5,397.5 209.5,397.5C 208.5,398.833 207.5,398.833 206.5,397.5 Z"/></g>
<g><path style="opacity:0.004" fill="#2969ad" d="M 151.5,397.5 C 151.833,397.5 152.167,397.5 152.5,397.5C 152.167,400.167 151.833,400.167 151.5,397.5 Z"/></g>
<g><path style="opacity:0.012" fill="#2a65a6" d="M 203.5,398.5 C 204.239,398.369 204.906,398.536 205.5,399C 204.563,399.692 203.897,399.525 203.5,398.5 Z"/></g>
<g><path style="opacity:0.008" fill="#2b65a6" d="M 200.5,399.5 C 201.239,399.369 201.906,399.536 202.5,400C 201.563,400.692 200.897,400.525 200.5,399.5 Z"/></g>
<g><path style="opacity:0.008" fill="#2a65a6" d="M 197.5,400.5 C 198.239,400.369 198.906,400.536 199.5,401C 198.563,401.692 197.897,401.525 197.5,400.5 Z"/></g>
<g><path style="opacity:0.008" fill="#2a65a7" d="M 194.5,401.5 C 195.239,401.369 195.906,401.536 196.5,402C 195.563,402.692 194.897,402.525 194.5,401.5 Z"/></g>
<g><path style="opacity:0.008" fill="#2b64a5" d="M 191.5,402.5 C 192.239,402.369 192.906,402.536 193.5,403C 192.563,403.692 191.897,403.525 191.5,402.5 Z"/></g>
<g><path style="opacity:0.008" fill="#2b64a5" d="M 188.5,403.5 C 189.239,403.369 189.906,403.536 190.5,404C 189.563,404.692 188.897,404.525 188.5,403.5 Z"/></g>
<g><path style="opacity:0.012" fill="#2969ac" d="M 158.5,404.5 C 158.5,404.833 158.5,405.167 158.5,405.5C 157.83,405.019 157.83,404.685 158.5,404.5 Z"/></g>
<g><path style="opacity:0.008" fill="#2b64a6" d="M 185.5,405.5 C 185.897,404.475 186.563,404.308 187.5,405C 186.906,405.464 186.239,405.631 185.5,405.5 Z"/></g>
<g><path style="opacity:0.008" fill="#2b69aa" d="M 158.5,405.5 C 159.833,406.167 159.833,406.167 158.5,405.5 Z"/></g>
<g><path style="opacity:0.012" fill="#2765a9" d="M 181.5,406.5 C 181.5,406.167 181.5,405.833 181.5,405.5C 185.5,405.833 185.5,406.167 181.5,406.5 Z"/></g>
<g><path style="opacity:0.012" fill="#2966a8" d="M 178.5,406.5 C 179.5,406.5 180.5,406.5 181.5,406.5C 180.5,407.833 179.5,407.833 178.5,406.5 Z"/></g>
<g><path style="opacity:0.012" fill="#2868ab" d="M 164.5,407.5 C 163.749,408.573 162.749,408.74 161.5,408C 162.448,407.517 163.448,407.351 164.5,407.5 Z"/></g>
<g><path style="opacity:0.004" fill="#2866ab" d="M 173.5,407.5 C 174.873,407.343 176.207,407.51 177.5,408C 175.934,408.765 174.601,408.598 173.5,407.5 Z"/></g>
<g><path style="opacity:0.007" fill="#2c67a7" d="M 165.5,409.5 C 167.628,408.371 169.961,408.204 172.5,409C 170.19,409.497 167.857,409.663 165.5,409.5 Z"/></g>
</svg>
