<?xml version="1.0" encoding="utf-8"?>
<!-- Generator: Adobe Illustrator 23.0.3, SVG Export Plug-In . SVG Version: 6.00 Build 0)  -->
<svg version="1.1" id="Icons" xmlns="http://www.w3.org/2000/svg" xmlns:xlink="http://www.w3.org/1999/xlink" x="0px" y="0px"
	 viewBox="0 0 32 32" style="enable-background:new 0 0 32 32;" xml:space="preserve">
<style type="text/css">
	.st0{fill:none;stroke:#000000;stroke-width:2;stroke-linecap:round;stroke-linejoin:round;stroke-miterlimit:10;}
</style>
<line class="st0" x1="3" y1="16" x2="15" y2="16"/>
<path class="st0" d="M21.8,13c-0.6-5.7-3-10-5.8-10c-3.3,0-6,5.8-6,13s2.7,13,6,13"/>
<path class="st0" d="M28.9,17c0-0.3,0.1-0.7,0.1-1c0-7.2-5.8-13-13-13S3,8.8,3,16s5.8,13,13,13c1,0,2-0.1,3-0.4"/>
<path class="st0" d="M24.5,17.5c1.9,1.9,1.9,5.1,0,7c-0.5,0.5-1,0.8-1.6,1.1c-1.8,0.7-3.9,0.4-5.4-1.1c-1.9-1.9-1.9-5.1,0-7
	S22.6,15.6,24.5,17.5z"/>
<path class="st0" d="M25.5,23l3.9,3.6c0.8,0.8,0.8,2,0,2.8l0,0c-0.8,0.8-2,0.8-2.8,0l-3.5-3.5"/>
</svg>
